<svg width="923" height="710" viewBox="0 0 923 710" fill="none" xmlns="http://www.w3.org/2000/svg">
<path d="M176.323 216.794L16.9346 277.147L176.323 337.5L334.891 277.147L176.323 216.794Z" fill="url(#paint0_linear_4_8)"/>
<path d="M176.324 337.5V699.59L16.935 639.237V277.147L176.324 337.5Z" fill="url(#paint1_linear_4_8)"/>
<path d="M334.891 277.147V639.237L176.323 699.59V337.5L334.891 277.147Z" fill="url(#paint2_linear_4_8)"/>
<path d="M473.494 142L282 207.5L473.494 273L664 207.5L473.494 142Z" fill="url(#paint3_linear_4_8)"/>
<path d="M474 272.571V666L282 600.429V207L474 272.571Z" fill="url(#paint4_linear_4_8)"/>
<path d="M664 207V600.429L474 666V272.571L664 207Z" fill="url(#paint5_linear_4_8)"/>
<path d="M638.097 404.278L516.559 450.292L638.097 496.307L759 450.292L638.097 404.278Z" fill="#C6C25B"/>
<path d="M638.097 496.307V772.397L516.559 726.382V450.292L638.097 496.307Z" fill="#A8724F"/>
<path d="M759 450.292V726.382L638.097 772.397V496.307L759 450.292Z" fill="#8C4F40"/>
<path d="M134.97 403.804L0.000732422 454.914L134.97 506.011L269.253 454.914L134.97 403.804Z" fill="#C6C25B"/>
<path d="M134.969 506.011V812.645L1.52588e-05 761.548V454.914L134.969 506.011Z" fill="url(#paint6_linear_4_8)"/>
<path d="M269.253 454.914V761.548L134.97 812.645V506.011L269.253 454.914Z" fill="url(#paint7_linear_4_8)"/>
<path d="M547.348 228L552 232.998H540.251C544.17 233.104 540 228.265 540 228.265C540 228.265 543.649 232.51 544.411 232.669C546.857 233.189 543.679 228 543.679 228C543.679 228 547.348 232.669 548.08 232.669C550.286 232.669 547.348 228 547.348 228Z" fill="#8C4F40"/>
<path d="M457.348 243L462 247.998H450.241C454.16 248.104 450 243.265 450 243.265C450 243.265 453.649 247.51 454.411 247.669C456.857 248.189 453.669 243 453.669 243C453.669 243 457.348 247.669 458.08 247.669C460.286 247.669 457.348 243 457.348 243Z" fill="#8C4F40"/>
<path d="M634.479 482.194L637.982 486.696H629.125C632.088 486.788 628.948 482.431 628.948 482.431C628.948 482.431 631.693 486.262 632.265 486.38C634.105 486.841 631.714 482.167 631.714 482.167C631.714 482.167 634.479 486.38 635.03 486.38C636.693 486.407 634.479 482.194 634.479 482.194Z" fill="#8C4F40"/>
<path d="M576.262 444.592L579.766 449.108H570.908C573.871 449.187 570.732 444.829 570.732 444.829C570.732 444.829 573.476 448.66 574.048 448.778C575.888 449.239 573.497 444.565 573.497 444.565C573.497 444.565 576.262 448.778 576.813 448.778C578.477 448.805 576.262 444.592 576.262 444.592Z" fill="#8C4F40"/>
<path d="M661.279 419.945L664.045 423.5H657.048C659.377 423.579 656.892 420.129 656.892 420.129C657.682 421.285 658.564 422.335 659.522 423.263C660.988 423.631 659.086 419.945 659.086 419.945C659.086 419.945 661.279 423.263 661.737 423.263C663.047 423.263 661.279 419.945 661.279 419.945Z" fill="#8C4F40"/>
<path d="M361.348 194L366 199.998H354.241C358.16 200.125 354 194.318 354 194.318C354 194.318 357.649 199.412 358.411 199.603C360.857 200.227 357.669 194 357.669 194C357.669 194 361.348 199.603 362.08 199.603C364.286 199.603 361.348 194 361.348 194Z" fill="#8C4F40"/>
<path d="M126.643 273.79L131.466 279.991H119.282C123.347 280.123 119.022 274.119 119.022 274.119C119.022 274.119 122.807 279.385 123.597 279.583C126.133 280.228 122.827 273.79 122.827 273.79C122.827 273.79 126.643 279.583 127.402 279.583C129.689 279.583 126.643 273.79 126.643 273.79Z" fill="#8C4F40"/>
<path d="M233.625 451.53L238.449 457.731H226.265C230.33 457.863 226.005 451.859 226.005 451.859C226.005 451.859 229.789 457.126 230.579 457.323C233.116 457.968 229.82 451.53 229.82 451.53C229.82 451.53 233.625 457.323 234.384 457.323C236.671 457.323 233.625 451.53 233.625 451.53Z" fill="#8C4F40"/>
<path d="M83.0623 450.213L87.886 456.414H75.7021C79.7669 456.546 75.4526 450.542 75.4526 450.542C75.4526 450.542 79.2367 455.809 80.0164 456.006C82.5633 456.651 79.2575 450.213 79.2575 450.213C79.2575 450.213 83.0623 456.006 83.8316 456.006C86.1083 456.006 83.0623 450.213 83.0623 450.213Z" fill="#8C4F40"/>
<path d="M638.097 404.278L516.559 450.292L638.097 496.307L759 450.292L638.097 404.278Z" fill="url(#paint8_linear_4_8)"/>
<path d="M638.097 496.307V772.397L516.559 726.382V450.292L638.097 496.307Z" fill="url(#paint9_linear_4_8)"/>
<path d="M759 450.292V726.382L638.097 772.397V496.307L759 450.292Z" fill="url(#paint10_linear_4_8)"/>
<path d="M634.479 482.194L637.982 486.696H629.125C632.088 486.788 628.948 482.431 628.948 482.431C628.948 482.431 631.693 486.262 632.265 486.38C634.105 486.841 631.714 482.167 631.714 482.167C631.714 482.167 634.479 486.38 635.03 486.38C636.693 486.407 634.479 482.194 634.479 482.194Z" fill="#8C4F40"/>
<path d="M576.262 444.592L579.766 449.108H570.908C573.871 449.187 570.732 444.829 570.732 444.829C570.732 444.829 573.476 448.66 574.048 448.778C575.888 449.239 573.497 444.565 573.497 444.565C573.497 444.565 576.262 448.778 576.813 448.778C578.477 448.805 576.262 444.592 576.262 444.592Z" fill="#8C4F40"/>
<path d="M661.279 419.945L664.045 423.5H657.048C659.377 423.579 656.892 420.129 656.892 420.129C657.682 421.285 658.564 422.335 659.522 423.263C660.988 423.631 659.086 419.945 659.086 419.945C659.086 419.945 661.279 423.263 661.737 423.263C663.047 423.263 661.279 419.945 661.279 419.945Z" fill="#8C4F40"/>
<path d="M798.538 586L677 632.015L798.538 678.03L919.441 632.015L798.538 586Z" fill="#C6C25B"/>
<path d="M798.538 678.03V954.119L677 908.104V632.015L798.538 678.03Z" fill="#A8724F"/>
<path d="M919.441 632.015V908.104L798.538 954.119V678.03L919.441 632.015Z" fill="#8C4F40"/>
<path d="M794.92 663.916L798.423 668.419H789.566C792.529 668.511 789.389 664.153 789.389 664.153C789.389 664.153 792.134 667.984 792.706 668.103C794.546 668.564 792.155 663.89 792.155 663.89C792.155 663.89 794.92 668.103 795.471 668.103C797.134 668.129 794.92 663.916 794.92 663.916Z" fill="#8C4F40"/>
<path d="M736.703 626.314L740.207 630.83H731.349C734.312 630.909 731.173 626.551 731.173 626.551C731.173 626.551 733.917 630.382 734.489 630.501C736.329 630.962 733.938 626.288 733.938 626.288C733.938 626.288 736.703 630.501 737.254 630.501C738.918 630.527 736.703 626.314 736.703 626.314Z" fill="#8C4F40"/>
<path d="M919.72 503.667L922.486 507.222H915.489C917.818 507.301 915.333 503.852 915.333 503.852C916.123 505.007 917.005 506.057 917.964 506.985C919.429 507.354 917.527 503.667 917.527 503.667C917.527 503.667 919.72 506.985 920.178 506.985C921.488 506.985 919.72 503.667 919.72 503.667Z" fill="#8C4F40"/>
<path d="M384.484 467L199 537.5L384.484 608L569 537.5L384.484 467Z" fill="#C6C25B"/>
<path d="M384 608.143V1029L199 958.857V538L384 608.143Z" fill="#A8724F"/>
<path d="M569 538V958.857L384 1029V608.143L569 538Z" fill="url(#paint11_linear_4_8)"/>
<path d="M378.959 586.041L384 592.998H371.254C375.518 593.14 371 586.407 371 586.407C371 586.407 374.949 592.326 375.772 592.51C378.42 593.222 374.979 586 374.979 586C374.979 586 378.959 592.51 379.751 592.51C382.145 592.55 378.959 586.041 378.959 586.041Z" fill="#8C4F40"/>
<path d="M289.959 529.041L295 535.998H282.254C286.518 536.12 282 529.406 282 529.406C282 529.406 285.949 535.309 286.772 535.491C289.42 536.201 285.979 529 285.979 529C285.979 529 289.959 535.491 290.751 535.491C293.145 535.532 289.959 529.041 289.959 529.041Z" fill="#8C4F40"/>
<path d="M419.747 491L424 496.998H413.24C416.821 497.131 413 491.311 413 491.311C414.215 493.261 415.57 495.032 417.045 496.598C419.299 497.22 416.374 491 416.374 491C416.374 491 419.747 496.598 420.451 496.598C422.465 496.598 419.747 491 419.747 491Z" fill="#8C4F40"/>
<path d="M176.323 216.794L16.9346 277.147L176.323 337.5L334.891 277.147L176.323 216.794Z" fill="url(#paint12_linear_4_8)"/>
<path d="M176.324 337.5V699.59L16.935 639.237V277.147L176.324 337.5Z" fill="url(#paint13_linear_4_8)"/>
<path d="M334.891 277.147V639.237L176.323 699.59V337.5L334.891 277.147Z" fill="url(#paint14_linear_4_8)"/>
<path d="M473.494 142L282 207.5L473.494 273L664 207.5L473.494 142Z" fill="url(#paint15_linear_4_8)"/>
<path d="M474 272.571V666L282 600.429V207L474 272.571Z" fill="url(#paint16_linear_4_8)"/>
<path d="M664 207V600.429L474 666V272.571L664 207Z" fill="url(#paint17_linear_4_8)"/>
<path d="M638.097 404.278L516.559 450.292L638.097 496.307L759 450.292L638.097 404.278Z" fill="#C6C25B"/>
<path d="M638.097 496.307V772.397L516.559 726.382V450.292L638.097 496.307Z" fill="#A8724F"/>
<path d="M759 450.292V726.382L638.097 772.397V496.307L759 450.292Z" fill="#8C4F40"/>
<path d="M134.97 403.804L0.000732422 454.914L134.97 506.011L269.253 454.914L134.97 403.804Z" fill="#C6C25B"/>
<path d="M134.969 506.011V812.645L1.52588e-05 761.548V454.914L134.969 506.011Z" fill="url(#paint18_linear_4_8)"/>
<path d="M269.253 454.914V761.548L134.97 812.645V506.011L269.253 454.914Z" fill="url(#paint19_linear_4_8)"/>
<path d="M547.348 228L552 232.998H540.251C544.17 233.104 540 228.265 540 228.265C540 228.265 543.649 232.51 544.411 232.669C546.857 233.189 543.679 228 543.679 228C543.679 228 547.348 232.669 548.08 232.669C550.286 232.669 547.348 228 547.348 228Z" fill="#8C4F40"/>
<path d="M457.348 243L462 247.998H450.241C454.16 248.104 450 243.265 450 243.265C450 243.265 453.649 247.51 454.411 247.669C456.857 248.189 453.669 243 453.669 243C453.669 243 457.348 247.669 458.08 247.669C460.286 247.669 457.348 243 457.348 243Z" fill="#8C4F40"/>
<path d="M634.479 482.194L637.982 486.696H629.125C632.088 486.788 628.948 482.431 628.948 482.431C628.948 482.431 631.693 486.262 632.265 486.38C634.105 486.841 631.714 482.167 631.714 482.167C631.714 482.167 634.479 486.38 635.03 486.38C636.693 486.407 634.479 482.194 634.479 482.194Z" fill="#8C4F40"/>
<path d="M576.262 444.592L579.766 449.108H570.908C573.871 449.187 570.732 444.829 570.732 444.829C570.732 444.829 573.476 448.66 574.048 448.778C575.888 449.239 573.497 444.565 573.497 444.565C573.497 444.565 576.262 448.778 576.813 448.778C578.477 448.805 576.262 444.592 576.262 444.592Z" fill="#8C4F40"/>
<path d="M661.279 419.945L664.045 423.5H657.048C659.377 423.579 656.892 420.129 656.892 420.129C657.682 421.285 658.564 422.335 659.522 423.263C660.988 423.631 659.086 419.945 659.086 419.945C659.086 419.945 661.279 423.263 661.737 423.263C663.047 423.263 661.279 419.945 661.279 419.945Z" fill="#8C4F40"/>
<path d="M361.348 194L366 199.998H354.241C358.16 200.125 354 194.318 354 194.318C354 194.318 357.649 199.412 358.411 199.603C360.857 200.227 357.669 194 357.669 194C357.669 194 361.348 199.603 362.08 199.603C364.286 199.603 361.348 194 361.348 194Z" fill="#8C4F40"/>
<path d="M126.643 273.79L131.466 279.991H119.282C123.347 280.123 119.022 274.119 119.022 274.119C119.022 274.119 122.807 279.385 123.597 279.583C126.133 280.228 122.827 273.79 122.827 273.79C122.827 273.79 126.643 279.583 127.402 279.583C129.689 279.583 126.643 273.79 126.643 273.79Z" fill="#8C4F40"/>
<path d="M233.625 451.53L238.449 457.731H226.265C230.33 457.863 226.005 451.859 226.005 451.859C226.005 451.859 229.789 457.126 230.579 457.323C233.116 457.968 229.82 451.53 229.82 451.53C229.82 451.53 233.625 457.323 234.384 457.323C236.671 457.323 233.625 451.53 233.625 451.53Z" fill="#8C4F40"/>
<path d="M83.0623 450.213L87.886 456.414H75.7021C79.7669 456.546 75.4526 450.542 75.4526 450.542C75.4526 450.542 79.2367 455.809 80.0164 456.006C82.5633 456.651 79.2575 450.213 79.2575 450.213C79.2575 450.213 83.0623 456.006 83.8316 456.006C86.1083 456.006 83.0623 450.213 83.0623 450.213Z" fill="#8C4F40"/>
<path d="M638.097 404.278L516.559 450.292L638.097 496.307L759 450.292L638.097 404.278Z" fill="url(#paint20_linear_4_8)"/>
<path d="M638.097 496.307V772.397L516.559 726.382V450.292L638.097 496.307Z" fill="url(#paint21_linear_4_8)"/>
<path d="M759 450.292V726.382L638.097 772.397V496.307L759 450.292Z" fill="url(#paint22_linear_4_8)"/>
<path d="M634.479 482.194L637.982 486.696H629.125C632.088 486.788 628.948 482.431 628.948 482.431C628.948 482.431 631.693 486.262 632.265 486.38C634.105 486.841 631.714 482.167 631.714 482.167C631.714 482.167 634.479 486.38 635.03 486.38C636.693 486.407 634.479 482.194 634.479 482.194Z" fill="#8C4F40"/>
<path d="M576.262 444.592L579.766 449.108H570.908C573.871 449.187 570.732 444.829 570.732 444.829C570.732 444.829 573.476 448.66 574.048 448.778C575.888 449.239 573.497 444.565 573.497 444.565C573.497 444.565 576.262 448.778 576.813 448.778C578.477 448.805 576.262 444.592 576.262 444.592Z" fill="#8C4F40"/>
<path d="M661.279 419.945L664.045 423.5H657.048C659.377 423.579 656.892 420.129 656.892 420.129C657.682 421.285 658.564 422.335 659.522 423.263C660.988 423.631 659.086 419.945 659.086 419.945C659.086 419.945 661.279 423.263 661.737 423.263C663.047 423.263 661.279 419.945 661.279 419.945Z" fill="#8C4F40"/>
<path d="M798.538 586L677 632.015L798.538 678.03L919.441 632.015L798.538 586Z" fill="#C6C25B"/>
<path d="M798.538 678.03V954.119L677 908.104V632.015L798.538 678.03Z" fill="#A8724F"/>
<path d="M919.441 632.015V908.104L798.538 954.119V678.03L919.441 632.015Z" fill="#8C4F40"/>
<path d="M794.92 663.916L798.423 668.419H789.566C792.529 668.511 789.389 664.153 789.389 664.153C789.389 664.153 792.134 667.984 792.706 668.103C794.546 668.564 792.155 663.89 792.155 663.89C792.155 663.89 794.92 668.103 795.471 668.103C797.134 668.129 794.92 663.916 794.92 663.916Z" fill="#8C4F40"/>
<path d="M736.703 626.314L740.207 630.83H731.349C734.312 630.909 731.173 626.551 731.173 626.551C731.173 626.551 733.917 630.382 734.489 630.501C736.329 630.962 733.938 626.288 733.938 626.288C733.938 626.288 736.703 630.501 737.254 630.501C738.918 630.527 736.703 626.314 736.703 626.314Z" fill="#8C4F40"/>
<path d="M919.72 503.667L922.486 507.222H915.489C917.818 507.301 915.333 503.852 915.333 503.852C916.123 505.007 917.005 506.057 917.964 506.985C919.429 507.354 917.527 503.667 917.527 503.667C917.527 503.667 919.72 506.985 920.178 506.985C921.488 506.985 919.72 503.667 919.72 503.667Z" fill="#8C4F40"/>
<path d="M384.484 467L199 537.5L384.484 608L569 537.5L384.484 467Z" fill="#C6C25B"/>
<path d="M384 608.143V1029L199 958.857V538L384 608.143Z" fill="#A8724F"/>
<path d="M569 538V958.857L384 1029V608.143L569 538Z" fill="url(#paint23_linear_4_8)"/>
<path d="M378.959 586.041L384 592.998H371.254C375.518 593.14 371 586.407 371 586.407C371 586.407 374.949 592.326 375.772 592.51C378.42 593.222 374.979 586 374.979 586C374.979 586 378.959 592.51 379.751 592.51C382.145 592.55 378.959 586.041 378.959 586.041Z" fill="#8C4F40"/>
<path d="M289.959 529.041L295 535.998H282.254C286.518 536.12 282 529.406 282 529.406C282 529.406 285.949 535.309 286.772 535.491C289.42 536.201 285.979 529 285.979 529C285.979 529 289.959 535.491 290.751 535.491C293.145 535.532 289.959 529.041 289.959 529.041Z" fill="#8C4F40"/>
<path d="M419.747 491L424 496.998H413.24C416.821 497.131 413 491.311 413 491.311C414.215 493.261 415.57 495.032 417.045 496.598C419.299 497.22 416.374 491 416.374 491C416.374 491 419.747 496.598 420.451 496.598C422.465 496.598 419.747 491 419.747 491Z" fill="#8C4F40"/>
<path d="M483.465 12.3473C483.033 13.1788 482.41 13.8956 481.647 14.4385L477.909 16.9177L472.337 20.6248L454.564 29.338C453.796 29.714 452.958 29.9239 452.104 29.9539C451.251 29.9839 450.4 29.8334 449.608 29.5122C449.486 29.4649 449.367 29.4093 449.253 29.3459C448.818 29.1348 448.411 28.8686 448.044 28.5538L447.941 28.4667C446.824 27.5552 446.015 26.3205 445.625 24.9312C445.235 23.5418 445.282 22.0656 445.76 20.704L448.589 12.6958C450.239 8.02919 453.636 4.1891 458.061 1.9879C462.486 -0.213308 467.592 -0.602967 472.298 0.90135L473.57 1.31325L480.399 4.06978C481.149 4.36618 481.831 4.81463 482.4 5.38706C482.97 5.9595 483.416 6.64362 483.71 7.39662C484.021 8.19229 484.159 9.04493 484.117 9.89829C484.075 10.7516 483.853 11.5863 483.465 12.3473Z" fill="url(#paint24_linear_4_8)"/>
<g style="mix-blend-mode:multiply">
<path d="M484 8.10798C484 9.60798 484.902 10.3712 483.465 11.3552C482.67 11.9254 481.797 12.3764 480.873 12.6939C479.719 13.0899 478.747 14.3573 477.909 15.9257L472.337 19.6327L454.564 28.3459C453.796 28.7219 452.958 28.9318 452.104 28.9618C451.251 28.9918 450.4 28.8414 449.608 28.5202C449.486 28.4728 449.367 28.4172 449.253 28.3538C450.327 26.9518 450.343 26.231 450.999 25.4547C451.655 24.6785 453.165 22.8962 454.745 22.7695C456.326 22.6427 458.491 20.0763 459.938 18.3733C461.384 16.6702 462.237 17.3911 464.6 17.193C466.963 16.995 467.556 14.5712 469.856 13.589C471.189 13.092 472.466 12.4547 473.665 11.6879C475.175 10.7691 475 11.5 475.965 10.7057C475.894 9.91358 477 9.5 479 7.44221C478.5 4.5 480.298 4.0767 480.5 4C483 4.10798 483 6.10797 484 8.10798Z" fill="url(#paint25_linear_4_8)"/>
</g>
<path d="M479.087 175.672C478.889 177.533 477.901 179.149 475.965 182.183L475.625 182.722C474.045 185.177 473.001 186.785 471.136 188.361C469.551 189.667 467.747 190.68 465.81 191.355C462.474 192.615 460.088 193.613 458.199 194.461C453.307 196.631 451.616 197.779 445.017 199.657C436.418 202.112 432.111 203.332 426.136 203.205C419.525 203.011 413.06 201.211 407.296 197.962C406.505 197.518 405.833 197.09 405.241 196.686C402.119 194.54 401.226 192.916 400.823 191.989C399.329 188.599 400.167 185.114 401.218 180.733C401.321 180.314 401.511 179.545 401.842 178.523C402.663 175.99 403.735 173.546 405.043 171.228C407.177 167.45 408.489 165.129 411.089 163.307C412.875 162.04 413.65 162.166 423.789 160.139C430.523 158.792 432.411 158.285 433.921 157.841C439.232 156.257 438.742 155.829 441.65 155.188C446.645 154.095 450.699 154.895 457.417 156.218C462.024 157.121 464.324 157.572 466.845 158.839C470.861 160.837 474.236 163.928 476.581 167.759C477.996 170.182 479.426 172.583 479.087 175.672Z" fill="url(#paint26_linear_4_8)"/>
<g style="mix-blend-mode:multiply" filter="url(#filter0_d_4_8)">
<path d="M477 180.5L475.625 182.714C474.045 185.177 473.001 186.785 471.136 188.353C469.551 189.665 467.744 190.682 465.802 191.355C463.383 192.266 461.463 193.051 459.866 193.732C453.615 196.393 452.319 197.574 445.017 199.649C436.418 202.112 432.111 203.332 426.136 203.205C419.525 203.011 413.06 201.211 407.296 197.962C406.853 197.708 406.434 197.455 406.047 197.209C402.253 194.833 401.242 192.979 400.815 191.989C399.313 188.599 400.151 185.106 401.21 180.733C401.305 180.306 401.503 179.545 401.835 178.523C402.503 180.86 402.997 183.243 403.312 185.652C403.481 186.879 404.042 188.018 404.911 188.898C405.78 189.778 406.911 190.351 408.133 190.532L414.914 191.546L430.5 192.5C432.729 192.833 437.279 190.167 439.5 190.532C442.5 189.676 445.455 189.695 448 188C450.545 186.305 452.463 186.179 455 184.5C457.537 182.821 459 182.714 462.5 180C463.5 177.5 470.5 172 477 180.5Z" fill="url(#paint27_linear_4_8)"/>
</g>
<g style="mix-blend-mode:multiply">
<path d="M459.866 193.732C453.615 196.393 452.319 197.574 445.017 199.649C436.418 202.112 432.111 203.332 426.136 203.205C419.525 203.011 413.06 201.211 407.296 197.962C406.853 197.708 406.434 197.455 406.047 197.209C407.548 197.209 409.382 197.447 412.907 199.079C420.976 202.801 421.537 199.934 424.635 198.991C427.733 198.049 429.732 199.974 437.572 200.069C444.859 200.164 444.084 196.552 447.174 195.585C448.921 195.047 454.548 194.342 459.866 193.732Z" fill="url(#paint28_linear_4_8)"/>
</g>
<path d="M453.378 82.0131L450.644 118.101L448.273 149.358C447.942 153.662 446.319 157.766 443.618 161.129L440.22 165.343L433.952 171.291C423.679 181.074 406.719 173.192 407.533 158.99C407.583 158.045 407.721 157.106 407.944 156.186L410.417 145.96L416.74 119.686L418.32 113.198L425.433 83.8904C425.636 83.1078 425.901 82.3424 426.223 81.6012L426.903 79.9615L427.97 77.403C428.004 77.3562 428.044 77.3136 428.088 77.2763C429.669 75.9218 445.285 66.4878 450.62 70.3057C452.548 71.684 452.943 78.0684 453.038 78.4327C453.038 78.5516 453.109 78.6704 453.141 78.7971C453.395 79.8488 453.476 80.9353 453.378 82.0131Z" fill="url(#paint29_linear_4_8)"/>
<g style="mix-blend-mode:multiply" opacity="0.37">
<path d="M453.378 82.0131L451.545 106.196L450.644 118.078L448.273 149.334C447.942 153.639 446.319 157.742 443.618 161.105L440.22 165.319L433.952 171.268C423.679 181.05 406.719 173.169 407.533 158.966C407.583 158.021 407.721 157.082 407.944 156.162L410.417 145.936L416.74 119.662L418.32 113.175L425.433 83.8666C425.636 83.084 425.901 82.3186 426.223 81.5774L427.97 77.3792C428.004 77.3324 428.044 77.2899 428.088 77.2525L427.701 80.5793L419.798 127.314C419.008 128.898 418.218 135.235 418.218 136.027C418.218 136.819 417.427 143.156 417.427 143.948C417.427 144.74 415.056 149.493 415.056 150.285C415.056 151.077 413.476 152.661 413.476 155.037V159.79C413.476 161.374 415.056 162.166 415.056 162.958C415.056 163.751 415.056 165.335 416.637 165.335L422.959 166.919C424.54 166.919 429.282 164.543 429.282 164.543L433.233 152.661L441.136 147.908L442.717 138.403V130.482C441.979 129.546 441.441 128.467 441.136 127.314C440.346 124.937 441.927 120.977 441.136 120.185C440.346 119.393 442.717 109.095 442.717 109.095L453.038 78.409C453.038 78.5278 453.109 78.6466 453.141 78.7733C453.398 79.8327 453.478 80.9274 453.378 82.0131Z" fill="url(#paint30_linear_4_8)"/>
</g>
<g style="mix-blend-mode:multiply" opacity="0.43">
<path d="M453.378 82.0131L450.644 118.101L448.273 149.358C447.942 153.662 446.319 157.766 443.618 161.129L440.22 165.343L433.952 171.291C423.679 181.074 406.719 173.192 407.533 158.99C407.583 158.045 407.721 157.106 407.944 156.186L410.417 145.96L416.74 119.686L418.32 113.198L425.433 83.8903C425.636 83.1078 425.901 82.3424 426.223 81.6012L426.903 79.9615C426.611 84.3498 411.887 143.18 411.887 143.18C408.726 151.893 407.936 156.519 407.936 159.022C407.936 161.398 410.978 168.527 413.468 170.903C413.468 170.903 422.406 174.864 425.322 174.864C426.903 174.864 437.967 166.943 438.758 161.398C439.113 158.919 447.609 147.726 445.08 138.427C444.124 134.902 443.665 131.472 442.709 127.337C441.018 120.042 441.128 111.495 444.685 104.208L453.133 78.7971C453.39 79.8484 453.473 80.9349 453.378 82.0131Z" fill="url(#paint31_linear_4_8)"/>
</g>
<path d="M569.229 135.243C569.173 137.96 569.055 140.368 568.881 142.522C568.233 150.443 566.866 154.966 565.411 158.752C565.245 159.188 565.079 159.6 564.913 160.02C564.052 162.19 563.191 164.218 562.471 166.634C560.101 174.721 547.298 183.64 547.298 183.64C547.298 183.64 545.18 184.741 542.074 186.191C537.371 188.369 530.417 191.316 525.074 192.417C522.933 192.854 520.755 193.085 518.57 193.106C512.564 193.177 507.261 191.736 501.721 191.015C494.268 190.056 488.42 189.296 479.229 182.951C470.038 176.606 468.244 169.604 458.8 158.895C449.355 148.186 450.28 143.148 448.13 140.97C446.344 139.164 444.622 126.712 444.037 118.204C443.918 116.462 443.839 114.878 443.823 113.594C443.848 112.185 444.029 110.782 444.361 109.412C444.653 108.073 445.056 106.592 445.538 105.016C445.673 104.556 445.831 104.081 445.981 103.606C446.534 101.927 447.15 100.168 447.814 98.3621C449.15 94.7185 450.675 90.9322 452.114 87.4152C453.789 83.3121 455.346 79.5892 456.35 76.904L456.421 76.7297C457.409 74.1921 458.773 71.8182 460.467 69.6879C461.084 68.8958 461.724 68.1037 462.348 67.4383C462.87 66.8601 463.383 66.3294 463.881 65.8541C464.585 65.157 465.256 64.5392 465.857 64.0085C466.743 63.2218 467.669 62.4815 468.631 61.7906L469.192 61.1411L471.84 58.1073C475.001 54.4478 487.385 57.1409 487.385 57.1409L507.269 58.0835L507.553 58.2023L515.741 61.6163L519.092 63.9926L521.534 65.7274L527.856 70.2344L528.765 70.8127C529.903 71.5414 531.982 72.9197 534.226 74.6544C537.087 76.8644 540.209 79.6526 541.979 82.3695C544.044 85.4934 546.645 88.226 549.661 90.4411C550.538 91.0827 551.091 91.4074 551.091 91.4074C554.7 96.2787 557.934 101.418 560.764 106.782C565.174 115.155 569.418 125.714 569.229 135.243Z" fill="#F9ECD9"/>
<g style="mix-blend-mode:multiply" opacity="0.59">
<path d="M518.57 193.106C512.564 193.177 507.269 191.736 501.729 191.023C494.276 190.056 488.428 189.296 479.237 182.959C470.046 176.622 468.244 169.604 458.807 158.895C449.371 148.186 450.288 143.156 448.138 140.97C446.344 139.164 444.629 126.712 444.037 118.204C444.337 118.997 444.78 119.789 445.293 121.088C446.32 123.386 446.917 125.853 447.056 128.367C447.245 131.1 448.905 132.938 451.11 136.748C453.315 140.558 453.426 141.928 456.168 145.809C458.91 149.691 458.009 150.388 459.598 152.764C461.186 155.14 462.411 156.107 464.071 157.944C465.731 159.782 465.422 160.028 466.213 162.293C467.003 164.558 468.03 164.97 469.682 166.808C471.334 168.646 472.93 171.022 474.187 171.727C476.946 173.321 479.868 174.612 482.904 175.577C488.088 177.335 485.132 177.216 485.132 177.216C485.132 177.216 490.799 181.478 496.047 182.706C501.294 183.933 499.247 183.118 501.539 184.219C503.831 185.32 510.106 186.959 510.106 186.959L518.57 193.106Z" fill="url(#paint32_linear_4_8)"/>
</g>
<g style="mix-blend-mode:multiply" opacity="0.42">
<path d="M569.5 138.5C569.334 138.936 568 154 564.914 160.028C564.052 162.198 563.199 164.218 562.479 166.634C560.108 174.729 547.306 183.64 547.306 183.64C547.306 183.64 545.188 184.741 542.074 186.191C537.379 188.369 530.425 191.324 525.074 192.417C522.934 192.862 520.756 193.093 518.57 193.106C512.564 193.177 507.269 191.736 501.729 191.023C494.276 190.056 488.428 189.296 479.237 182.959C470.046 176.622 468.244 169.604 458.807 158.895C449.371 148.186 450.288 143.156 448.138 140.97C446.344 139.164 444.629 126.712 444.037 118.204C443.918 116.462 443.847 114.885 443.831 113.594C443.848 112.184 444.029 110.781 444.369 109.412C444.661 108.081 445.056 106.6 445.538 105.024C448.549 107.63 452.509 111.503 452.509 111.503C452.509 111.503 458.76 114.893 464.498 115.06C470.235 115.226 473.578 114.695 482.485 113.262C491.392 111.828 487.456 115.757 494.656 117.895C501.855 120.034 505.016 118.426 505.016 118.426C505.016 118.426 517.353 124.129 522.498 127.702C527.643 131.274 531.839 136.09 537.158 140.732C542.477 145.374 537.831 132.75 541 135C544.169 137.25 544.986 121.768 545.5 125C546.014 128.232 551 91.5 551 91.5L558 101.5L564.914 114.5C566.5 119.5 571.112 134.268 569.5 138.5Z" fill="url(#paint33_linear_4_8)"/>
</g>
<g style="mix-blend-mode:multiply">
<path d="M519.052 64.0006L513.409 66.266L491.921 71.4384C488.441 72.2782 484.827 72.4052 481.296 71.8118C477.765 71.2183 474.39 69.9167 471.373 67.9848L468.955 66.4006L465.841 63.953C466.727 63.1663 467.653 62.426 468.615 61.7351L469.176 61.0856L471.84 58.1073C475.001 54.4478 487.385 57.1409 487.385 57.1409L507.269 58.0835L507.553 58.2023L515.741 61.6163L519.052 64.0006Z" fill="url(#paint34_linear_4_8)"/>
</g>
<g filter="url(#filter1_d_4_8)">
<path d="M568.541 186.468C568.541 186.587 568.541 186.698 568.502 186.817C568.28 188.745 567.729 190.62 566.873 192.361L565.293 195.53C564.85 196.449 564.321 197.325 563.712 198.144C561.375 201.289 558.025 203.528 554.229 204.481L542.003 207.483L524.482 211.792L510.936 215.127C509.924 215.375 508.893 215.534 507.854 215.602L502.14 215.911L501.349 215.958C499.939 216.028 498.546 215.618 497.398 214.794C493.69 212.113 490.704 208.554 488.705 204.433C488.428 203.871 488.167 203.285 487.914 202.698C487.407 201.45 486.993 200.166 486.674 198.857L486.515 198.183C486.275 197.198 486.147 196.188 486.136 195.173C486.136 195.173 486.136 195.173 486.136 195.134V194.912C486.139 194.326 486.181 193.741 486.263 193.161L486.705 189.993V189.819L486.934 188.163L488.025 180.409C488.47 177.241 489.805 174.266 491.873 171.83C493.941 169.394 496.658 167.597 499.706 166.65L524.561 158.927C527.875 157.889 531.428 157.905 534.732 158.974L552.284 164.661C553.562 165.078 554.765 165.695 555.849 166.491C555.849 166.491 555.896 166.491 555.912 166.539L557.358 167.616L560.828 170.182C561.597 170.762 562.316 171.406 562.977 172.107C563.255 172.384 563.519 172.675 563.768 172.979L564.558 173.921L564.755 174.151L564.977 174.436C565.079 174.555 565.174 174.682 565.269 174.808C567.129 177.328 568.261 180.313 568.541 183.434C568.63 184.444 568.63 185.459 568.541 186.468Z" fill="url(#paint35_linear_4_8)"/>
</g>
<g style="mix-blend-mode:multiply">
<path d="M568.541 186.476C568.536 186.593 568.522 186.709 568.501 186.825C568.286 188.754 567.735 190.63 566.873 192.369L565.293 195.538C564.842 196.456 564.313 197.333 563.712 198.16C561.367 201.297 558.02 203.534 554.229 204.496L542.003 207.499L510.936 215.142C509.927 215.389 508.898 215.546 507.861 215.61L502.14 215.919L501.349 215.966C499.939 216.031 498.548 215.621 497.398 214.802C495.135 213.157 493.134 211.178 491.463 208.932C492.393 208.693 493.246 208.216 493.936 207.546C497.271 204.829 501.484 210.944 506.36 210.905C511.236 210.865 509.9 209.162 515.701 208.932C521.502 208.703 520.909 205.827 522.577 204.473C524.244 203.118 526.117 202.73 530.994 202.69C535.87 202.651 534.155 199.039 535.799 197.676C537.442 196.314 546.199 191.474 548.799 189.93C551.399 188.385 553.075 187.031 555.675 185.478C558.275 183.925 559.547 180.654 561.95 178.143C563.325 176.709 564.447 175.656 565.301 174.808C565.656 175.299 565.988 175.791 566.289 176.305C568.095 179.371 568.883 182.932 568.541 186.476Z" fill="url(#paint36_linear_4_8)"/>
</g>
<g style="mix-blend-mode:multiply">
<path d="M568.541 186.476C568.352 188.529 567.787 190.53 566.873 192.377L565.293 195.546C564.842 196.464 564.313 197.341 563.712 198.168C561.367 201.305 558.02 203.542 554.228 204.504L542.003 207.506L510.936 215.15C509.927 215.397 508.898 215.554 507.861 215.618L502.14 215.927L504.147 214.255L511.481 210.58L534.4 207.823C534.4 207.823 552.735 200.481 560.986 194.967C564.113 192.747 566.697 189.844 568.541 186.476Z" fill="url(#paint37_linear_4_8)"/>
</g>
<g style="mix-blend-mode:multiply">
<path d="M568.541 186.468C568.541 186.587 568.541 186.698 568.502 186.817C568.28 188.745 567.73 190.62 566.874 192.361L565.293 195.53C564.85 196.449 564.321 197.325 563.712 198.144C561.375 201.289 558.025 203.528 554.229 204.481L542.003 207.483L524.482 211.792L510.936 215.127C509.924 215.375 508.893 215.534 507.854 215.602L502.14 215.911L501.35 215.958C499.939 216.028 498.546 215.618 497.398 214.794C493.691 212.113 490.704 208.554 488.705 204.433C488.428 203.871 488.167 203.285 487.914 202.698C487.407 201.45 486.993 200.166 486.674 198.857C488.373 197.17 488.452 195.498 490.309 193.811C492.166 192.124 490.309 190.286 494.205 190.286H521.407C523.344 190.286 531.128 188.52 533.064 188.52C535.001 188.52 540.833 186.769 542.785 185.011L546.665 181.486C548.618 179.727 552.49 179.727 552.49 177.977C552.49 176.226 556.378 174.452 560.275 174.452H564.969C565.072 174.571 565.166 174.697 565.261 174.824C567.121 177.344 568.253 180.328 568.533 183.45C568.624 184.454 568.627 185.464 568.541 186.468Z" fill="url(#paint38_linear_4_8)"/>
</g>
<g style="mix-blend-mode:saturation" opacity="0.51">
<path d="M565.411 158.752C565.245 159.188 565.079 159.608 564.913 160.028C562.307 159.129 559.608 158.524 556.868 158.222C546.428 156.748 542.279 154.728 535.917 154.483C529.555 154.237 519.756 151.132 516.539 150.617C513.323 150.103 512.698 143.005 502.258 141.532C491.818 140.059 489.906 136.257 484.081 133.611C478.257 130.965 478.873 128.502 470.733 126.038C462.593 123.575 457.725 122.403 454.5 121.888C451.276 121.373 449.988 119.749 447.309 118.862C446.227 118.556 445.122 118.341 444.005 118.22C443.887 116.478 443.815 114.901 443.8 113.61C443.817 112.2 443.997 110.796 444.337 109.428C444.629 108.097 445.025 106.616 445.507 105.04C445.649 104.58 445.807 104.105 445.949 103.63C447.533 103.87 449.095 104.238 450.62 104.731C452.272 105.388 457.922 106.489 461.992 107.717C466.062 108.945 473.736 105.895 483.244 105.855C492.751 105.816 502.069 103.416 508.438 103.645C514.808 103.875 529.121 104.224 532.472 106.315C535.822 108.406 543.125 110.157 545.488 109.951C547.851 109.745 555.541 106.663 558.773 107.17C559.461 107.231 560.152 107.102 560.772 106.798C565.198 115.155 569.466 125.714 569.252 135.251C569.197 137.967 569.078 140.368 568.905 142.53C568.256 150.443 566.866 154.982 565.411 158.752Z" fill="url(#paint39_linear_4_8)"/>
</g>
<path d="M534.092 44.1504C533.761 46.1075 533.152 48.0069 532.282 49.7902C529.985 54.5661 525.983 58.3035 521.067 60.2618L513.164 63.4302L491.676 68.6027C488.196 69.4425 484.582 69.5695 481.051 68.976C477.52 68.3826 474.145 67.081 471.128 65.1491L468.71 63.5649L461.218 57.6796L457.859 54.2339L455.804 52.1269C446.724 42.8117 448.842 25.726 461.076 21.3298L478.826 12.2602C486.729 8.22834 497.382 9.13926 505.696 12.173L511.094 14.1454L518.207 16.7356C522.822 18.4177 526.831 21.442 529.722 25.4213C532.612 29.4007 534.252 34.154 534.432 39.073C534.491 40.7726 534.377 42.4739 534.092 44.1504Z" fill="url(#paint40_linear_4_8)"/>
<g style="mix-blend-mode:multiply" opacity="0.43">
<path d="M534.5 38.3648C536.5 47.5 529.5 57 522 60L519 61.5L513.165 63.0569L491.676 68.2293C488.196 69.0691 484.582 69.1961 481.051 68.6027C477.52 68.0093 474.145 66.7076 471.128 64.7758L468.71 63.1916L461.218 57.3062L457.859 53.8605C459.558 53.2348 461.392 52.2763 462.166 52.1417C463.747 51.8486 468.378 50.9694 468.228 50.1852C468.078 49.401 467.935 50.098 468.718 48.4821C470.575 44.6483 473.562 44.3394 474.487 44.9731C474.93 45.2741 476.487 46.6445 477.988 47.999C479.579 49.4961 481.555 50.5192 483.694 50.9535C484.587 51.1119 484.816 51.9278 485.63 52.5377C488.547 54.8348 489.337 55.6269 491.953 56.1735C494.276 56.6646 498.03 53.8764 498.03 53.8764C498.03 53.8764 502.677 53.3378 504.353 53.8289C506.028 54.32 509.6 56.0547 511.007 54.9853C512.414 53.916 518.776 53.5199 518.776 53.5199L523.612 52.2209L534.5 38.3648Z" fill="url(#paint41_linear_4_8)"/>
</g>
<g style="mix-blend-mode:multiply">
<path d="M534.431 39.073L526.457 37.0769L525.248 36.7838C523.071 36.2542 521.084 35.1268 519.511 33.5282C516.681 30.5865 514.3 27.2421 512.445 23.6031C511.352 21.4488 510.483 19.1873 509.853 16.8544L511.125 14.1612L518.238 16.7514C522.845 18.4376 526.846 21.4617 529.731 25.4375C532.615 29.4133 534.251 34.1605 534.431 39.073Z" fill="url(#paint42_linear_4_8)"/>
</g>
<path d="M546.476 26.0824L546.294 26.8745C545.955 28.9218 545.143 30.8612 543.923 32.5381C542.433 34.5819 540.393 36.1577 538.041 37.0808C535.69 38.0039 533.125 38.2361 530.646 37.7502L528.852 37.4016L519.779 31.4133C516.779 29.4711 514.517 26.5749 513.356 23.1895C512.195 19.8042 512.203 16.1261 513.378 12.7457C514.553 9.36523 516.827 6.47852 519.835 4.54892C522.844 2.61933 526.412 1.75876 529.966 2.10535L531.792 2.27962C535.336 2.6223 538.63 4.26049 541.046 6.88176L541.521 7.39663C543.804 9.87025 545.449 12.866 546.313 16.1229C547.177 19.3798 547.233 22.7989 546.476 26.0824Z" fill="url(#paint43_linear_4_8)"/>
<g style="mix-blend-mode:multiply" opacity="0.43">
<path d="M546 15C546.812 16.5473 546.848 18.2398 547 19.9797C547.152 21.7196 547.531 23.8362 547 25.5L546.314 28.5L544.314 32L542.396 34.625C540.577 36.7865 535.813 38 532.813 38.5C529.314 38.5 524.591 34.0337 521.814 33.5C522.025 33.4011 528.082 29.399 526.682 34.2955C528.093 33.1645 528.004 34.474 528.814 33.7018C529.623 32.9296 530.505 33.2643 531.314 32.5C532.123 31.7357 533.355 34.474 534.165 33.7018C534.975 32.9296 535.814 31.3722 536.624 30.6717C537.433 29.9711 539.849 28.3779 540.688 26.8204C541.527 25.263 542.337 24.4908 542.396 22.1156C542.455 19.7404 544.045 19.786 544.899 17.4414C545.182 16.6474 545.856 15.8306 546 15Z" fill="url(#paint44_linear_4_8)"/>
</g>
<path d="M550.079 119.686L541.323 159.037C540.981 160.609 540.451 162.133 539.742 163.576L538.826 165.422C535.609 171.933 529.247 175.157 522.443 173.731L520.127 173.24C518.617 172.906 517.158 172.373 515.788 171.656L510.628 169.026C507.986 167.577 505.986 165.185 505.024 162.325L502.922 156.408C502.661 155.663 502.432 154.911 502.235 154.158C502.179 153.936 502.124 153.722 502.076 153.501C501.926 152.859 501.8 152.21 501.705 151.56C501.23 148.642 501.299 145.66 501.91 142.768L510.604 102.687C510.916 101.221 511.391 99.7942 512.018 98.4334L513.805 95.6056C513.978 95.3442 514.184 95.0511 514.421 94.7343C514.785 94.2353 515.211 93.6808 515.717 93.0946C517.717 90.7183 520.696 88.0172 524.071 86.8924L529.603 86.1003C531.879 86.4647 535.396 88.7222 537.506 90.0609L537.869 90.2826L539.892 91.5579L543.844 94.0214C547.084 96.0729 546.713 99.1146 548.127 103.091L549.115 105.895C549.234 106.228 549.344 106.56 549.439 106.901C549.681 107.647 549.882 108.406 550.04 109.174C550.087 109.38 550.127 109.578 550.166 109.784C550.206 109.99 550.222 110.085 550.245 110.236C550.817 113.366 550.76 116.578 550.079 119.686Z" fill="url(#paint45_linear_4_8)"/>
<g style="mix-blend-mode:multiply">
<path d="M550.08 119.686L541.323 159.037C540.982 160.609 540.451 162.133 539.742 163.576L538.826 165.422C535.609 171.933 529.247 175.157 522.443 173.731L520.127 173.24C518.617 172.906 517.158 172.373 515.788 171.656L510.628 169.026C507.986 167.577 505.986 165.185 505.024 162.325L502.922 156.408C502.661 155.663 502.432 154.911 502.235 154.158C503.806 155.085 505.256 156.205 506.55 157.493C513.18 164.178 519.764 168.915 521.637 169.85C523.51 170.784 530.006 170.642 532.701 166.721C535.763 162.28 538.391 157.553 540.548 152.606C543.48 146.118 546.081 138.292 546.95 133.413C547.819 128.533 545.022 129.555 546.729 121.745C547.645 117.843 548.817 114.006 550.238 110.26C550.808 113.381 550.754 116.585 550.08 119.686Z" fill="url(#paint46_linear_4_8)"/>
</g>
<g style="mix-blend-mode:multiply" opacity="0.15">
<path d="M550.08 119.686L541.323 159.037C540.982 160.609 540.451 162.133 539.742 163.576L538.826 165.422C535.609 171.933 529.247 175.157 522.443 173.731L520.127 173.24C518.617 172.906 517.158 172.373 515.788 171.656L510.628 169.026C507.986 167.577 505.986 165.185 505.024 162.325L502.922 156.408C502.661 155.663 502.432 154.911 502.235 154.158C502.179 153.936 502.124 153.722 502.077 153.501C501.926 152.859 501.8 152.21 501.705 151.56C502.344 151.855 502.951 152.216 503.515 152.637C504.305 153.429 505.095 151.845 505.886 153.429C506.496 154.85 507.293 156.182 508.257 157.39C509.047 158.182 509.047 157.39 509.837 158.182C510.491 158.891 511.304 159.434 512.208 159.766C513.789 160.558 515.369 160.265 515.772 161.596C516.176 162.927 516.16 164.519 517.74 164.519H520.902C521.692 164.519 521.692 166.103 524.063 165.311C526.434 164.519 525.643 165.311 526.434 164.519C527.224 163.727 528.014 162.935 528.805 162.935C529.595 162.935 528.805 162.143 530.385 161.35C531.966 160.558 533.546 158.974 534.337 158.974C535.127 158.974 537.498 157.39 537.498 155.806C537.498 154.221 539.078 149.469 539.078 148.677C539.078 147.885 543.03 140.756 543.03 140.756C543.099 139.404 543.365 138.07 543.82 136.795C544.471 134.75 544.739 132.601 544.611 130.458V123.329C544.611 118.577 544.611 116.2 546.191 114.616C546.855 113.951 548.222 109.99 549.416 106.901C549.657 107.647 549.858 108.406 550.016 109.174C550.064 109.38 550.103 109.578 550.143 109.784C550.182 109.99 550.198 110.085 550.222 110.236C550.801 113.364 550.752 116.576 550.08 119.686Z" fill="url(#paint47_linear_4_8)"/>
</g>
<g clip-path="url(#clip0_4_8)">
<path d="M538.286 291.366L529.24 293.961V318.215L523.128 319.919V295.746L514 298.342V293.231L538.286 286.336V291.366Z" fill="#FFEBD5"/>
<path d="M550.347 282.848L568.847 277.576V282.686L556.46 286.174V293.069L567.706 289.824V294.935L556.46 298.18V305.399L569.092 301.83V306.859L550.347 312.213V282.848Z" fill="#FFEBD5"/>
<path d="M595.904 291.366C595.904 290.473 595.496 289.824 594.844 289.5C594.029 289.094 593.133 288.851 592.236 288.689C591.177 288.527 590.036 288.364 588.814 288.283C587.591 288.121 586.45 287.878 585.391 287.472C584.331 287.066 583.435 286.418 582.783 285.525C582.049 284.471 581.642 283.173 581.723 281.713C581.723 280.415 581.968 279.117 582.457 277.819C582.946 276.602 583.679 275.548 584.657 274.574C585.635 273.52 586.776 272.709 587.999 272.06C589.384 271.33 590.851 270.762 592.236 270.356C593.948 269.87 595.659 269.545 597.371 269.383C598.756 269.221 600.142 269.221 601.364 269.545L599.408 274.899C598.512 274.656 597.534 274.574 596.474 274.656C595.089 274.737 593.703 274.98 592.236 275.386C591.096 275.629 589.955 276.278 588.977 277.089C588.243 277.738 587.836 278.711 587.836 279.523C587.836 280.334 588.243 281.064 588.895 281.307C589.71 281.713 590.607 281.956 591.503 282.118C592.562 282.281 593.703 282.443 594.926 282.605C596.148 282.767 597.289 283.011 598.349 283.416C599.408 283.822 600.305 284.471 600.957 285.282C601.69 286.255 602.016 287.553 602.016 288.932C602.016 290.311 601.772 291.771 601.201 293.231C600.631 294.529 599.897 295.665 598.919 296.719C597.86 297.855 596.637 298.747 595.333 299.396C593.866 300.207 592.318 300.856 590.77 301.262C588.814 301.83 586.858 302.235 584.902 302.316C583.598 302.398 582.375 302.398 581.153 302.235L583.027 296.719C583.435 296.801 583.842 296.882 584.331 296.882C584.902 296.963 585.472 296.963 586.124 296.882C586.776 296.882 587.428 296.801 588.162 296.719C588.895 296.638 589.629 296.476 590.362 296.233C591.829 295.908 593.214 295.178 594.518 294.205C595.333 293.556 595.904 292.42 595.904 291.366Z" fill="#FFEBD5"/>
<path d="M636 286.58C634.859 287.634 633.637 288.445 632.333 289.013C630.866 289.743 629.317 290.311 627.85 290.717C626.057 291.203 624.264 291.447 622.553 291.366C620.923 291.285 619.375 290.798 618.152 289.987C616.848 289.013 615.789 287.715 615.137 286.093C614.322 284.065 613.914 281.794 613.996 279.36C613.914 276.927 614.322 274.331 615.218 271.735C615.952 269.707 617.093 267.842 618.56 266.138C619.864 264.597 621.331 263.299 623.042 262.326C624.672 261.352 626.302 260.622 628.013 260.136C629.562 259.649 631.029 259.406 632.496 259.162C633.555 259.081 634.533 259 635.511 259.081L634.37 264.273C633.555 264.191 632.74 264.191 631.925 264.273C630.784 264.435 629.643 264.678 628.502 265.084C626.22 265.652 624.101 267.193 622.553 269.221C621.005 271.33 620.271 274.088 620.271 277.576C620.271 278.955 620.434 280.334 620.842 281.551C621.168 282.605 621.738 283.578 622.472 284.309C623.205 284.957 624.101 285.444 625.161 285.606C626.383 285.769 627.606 285.688 628.91 285.282C630.051 284.957 631.192 284.552 632.251 283.903C633.066 283.416 633.881 282.93 634.615 282.281L636 286.58Z" fill="#FFEBD5"/>
</g>
<defs>
<filter id="filter0_d_4_8" x="394" y="174.932" width="85" height="35.2824" filterUnits="userSpaceOnUse" color-interpolation-filters="sRGB">
<feFlood flood-opacity="0" result="BackgroundImageFix"/>
<feColorMatrix in="SourceAlpha" type="matrix" values="0 0 0 0 0 0 0 0 0 0 0 0 0 0 0 0 0 0 127 0" result="hardAlpha"/>
<feOffset dx="-2" dy="3"/>
<feGaussianBlur stdDeviation="2"/>
<feComposite in2="hardAlpha" operator="out"/>
<feColorMatrix type="matrix" values="0 0 0 0 0.713726 0 0 0 0 0.592157 0 0 0 0 0.329412 0 0 0 0.25 0"/>
<feBlend mode="normal" in2="BackgroundImageFix" result="effect1_dropShadow_4_8"/>
<feBlend mode="normal" in="SourceGraphic" in2="effect1_dropShadow_4_8" result="shape"/>
</filter>
<filter id="filter1_d_4_8" x="477.536" y="154.56" width="95.6717" height="71.0057" filterUnits="userSpaceOnUse" color-interpolation-filters="sRGB">
<feFlood flood-opacity="0" result="BackgroundImageFix"/>
<feColorMatrix in="SourceAlpha" type="matrix" values="0 0 0 0 0 0 0 0 0 0 0 0 0 0 0 0 0 0 127 0" result="hardAlpha"/>
<feOffset dx="-2" dy="3"/>
<feGaussianBlur stdDeviation="3.3"/>
<feComposite in2="hardAlpha" operator="out"/>
<feColorMatrix type="matrix" values="0 0 0 0 0.714167 0 0 0 0 0.592609 0 0 0 0 0.330302 0 0 0 1 0"/>
<feBlend mode="normal" in2="BackgroundImageFix" result="effect1_dropShadow_4_8"/>
<feBlend mode="normal" in="SourceGraphic" in2="effect1_dropShadow_4_8" result="shape"/>
</filter>
<linearGradient id="paint0_linear_4_8" x1="176" y1="317" x2="503" y2="257" gradientUnits="userSpaceOnUse">
<stop stop-color="#C6C25B"/>
<stop offset="1" stop-color="#9D763F"/>
</linearGradient>
<linearGradient id="paint1_linear_4_8" x1="96.6294" y1="699.59" x2="96.6294" y2="277.147" gradientUnits="userSpaceOnUse">
<stop stop-color="#916040"/>
<stop offset="1" stop-color="#D89B72"/>
</linearGradient>
<linearGradient id="paint2_linear_4_8" x1="256" y1="523" x2="256" y2="313" gradientUnits="userSpaceOnUse">
<stop stop-color="#431A10"/>
<stop offset="0.66" stop-color="#8C4F40"/>
</linearGradient>
<linearGradient id="paint3_linear_4_8" x1="437" y1="273" x2="523" y2="57" gradientUnits="userSpaceOnUse">
<stop offset="0.0305344" stop-color="#C6C25B"/>
<stop offset="0.77529" stop-color="#C48D3F"/>
</linearGradient>
<linearGradient id="paint4_linear_4_8" x1="378" y1="251" x2="393" y2="603" gradientUnits="userSpaceOnUse">
<stop stop-color="#C68D66"/>
<stop offset="1" stop-color="#8D5530"/>
</linearGradient>
<linearGradient id="paint5_linear_4_8" x1="569" y1="689" x2="569" y2="221" gradientUnits="userSpaceOnUse">
<stop stop-color="#431A10"/>
<stop offset="1" stop-color="#8C4F40"/>
</linearGradient>
<linearGradient id="paint6_linear_4_8" x1="67.4845" y1="812.645" x2="67.4845" y2="454.914" gradientUnits="userSpaceOnUse">
<stop stop-color="#FFC7A2"/>
<stop offset="1" stop-color="#A8724F"/>
</linearGradient>
<linearGradient id="paint7_linear_4_8" x1="202" y1="715" x2="202.111" y2="454.914" gradientUnits="userSpaceOnUse">
<stop stop-color="#431A10"/>
<stop offset="1" stop-color="#8C4F40"/>
</linearGradient>
<linearGradient id="paint8_linear_4_8" x1="637.779" y1="496.307" x2="637.779" y2="404.278" gradientUnits="userSpaceOnUse">
<stop stop-color="#C6C25B"/>
<stop offset="1" stop-color="#9D763F"/>
</linearGradient>
<linearGradient id="paint9_linear_4_8" x1="577" y1="633" x2="577.328" y2="450.292" gradientUnits="userSpaceOnUse">
<stop stop-color="#965326"/>
<stop offset="1" stop-color="#DAA07B"/>
</linearGradient>
<linearGradient id="paint10_linear_4_8" x1="699" y1="759" x2="699" y2="493" gradientUnits="userSpaceOnUse">
<stop offset="0.39" stop-color="#431A10"/>
<stop offset="1" stop-color="#8C4F40"/>
</linearGradient>
<linearGradient id="paint11_linear_4_8" x1="476.5" y1="538" x2="465" y2="853" gradientUnits="userSpaceOnUse">
<stop stop-color="#9F6354"/>
<stop offset="0.59" stop-color="#431A10"/>
</linearGradient>
<linearGradient id="paint12_linear_4_8" x1="176" y1="317" x2="503" y2="257" gradientUnits="userSpaceOnUse">
<stop stop-color="#C6C25B"/>
<stop offset="1" stop-color="#9D763F"/>
</linearGradient>
<linearGradient id="paint13_linear_4_8" x1="96.6294" y1="699.59" x2="96.6294" y2="277.147" gradientUnits="userSpaceOnUse">
<stop stop-color="#916040"/>
<stop offset="1" stop-color="#D89B72"/>
</linearGradient>
<linearGradient id="paint14_linear_4_8" x1="256" y1="523" x2="256" y2="313" gradientUnits="userSpaceOnUse">
<stop stop-color="#431A10"/>
<stop offset="0.66" stop-color="#8C4F40"/>
</linearGradient>
<linearGradient id="paint15_linear_4_8" x1="437" y1="273" x2="523" y2="57" gradientUnits="userSpaceOnUse">
<stop offset="0.0305344" stop-color="#C6C25B"/>
<stop offset="0.77529" stop-color="#C48D3F"/>
</linearGradient>
<linearGradient id="paint16_linear_4_8" x1="378" y1="251" x2="393" y2="603" gradientUnits="userSpaceOnUse">
<stop stop-color="#C68D66"/>
<stop offset="1" stop-color="#8D5530"/>
</linearGradient>
<linearGradient id="paint17_linear_4_8" x1="569" y1="689" x2="569" y2="221" gradientUnits="userSpaceOnUse">
<stop stop-color="#431A10"/>
<stop offset="1" stop-color="#8C4F40"/>
</linearGradient>
<linearGradient id="paint18_linear_4_8" x1="67.4845" y1="812.645" x2="67.4845" y2="454.914" gradientUnits="userSpaceOnUse">
<stop stop-color="#FFC7A2"/>
<stop offset="1" stop-color="#A8724F"/>
</linearGradient>
<linearGradient id="paint19_linear_4_8" x1="202" y1="715" x2="202.111" y2="454.914" gradientUnits="userSpaceOnUse">
<stop stop-color="#431A10"/>
<stop offset="1" stop-color="#8C4F40"/>
</linearGradient>
<linearGradient id="paint20_linear_4_8" x1="637.779" y1="496.307" x2="637.779" y2="404.278" gradientUnits="userSpaceOnUse">
<stop stop-color="#C6C25B"/>
<stop offset="1" stop-color="#9D763F"/>
</linearGradient>
<linearGradient id="paint21_linear_4_8" x1="577" y1="633" x2="577.328" y2="450.292" gradientUnits="userSpaceOnUse">
<stop stop-color="#965326"/>
<stop offset="1" stop-color="#DAA07B"/>
</linearGradient>
<linearGradient id="paint22_linear_4_8" x1="699" y1="759" x2="699" y2="493" gradientUnits="userSpaceOnUse">
<stop offset="0.39" stop-color="#431A10"/>
<stop offset="1" stop-color="#8C4F40"/>
</linearGradient>
<linearGradient id="paint23_linear_4_8" x1="476.5" y1="538" x2="465" y2="853" gradientUnits="userSpaceOnUse">
<stop stop-color="#9F6354"/>
<stop offset="0.59" stop-color="#431A10"/>
</linearGradient>
<linearGradient id="paint24_linear_4_8" x1="464.744" y1="0" x2="464.744" y2="29.9576" gradientUnits="userSpaceOnUse">
<stop stop-color="#FCF1DD"/>
<stop offset="0.9999" stop-color="#EDBA93"/>
<stop offset="1" stop-color="#EAD1A3"/>
</linearGradient>
<linearGradient id="paint25_linear_4_8" x1="468.093" y1="6.90652" x2="468.093" y2="29.9656" gradientUnits="userSpaceOnUse">
<stop stop-color="#FCF1DD"/>
<stop offset="0.9999" stop-color="#EDBA93"/>
<stop offset="1" stop-color="#EAD1A3"/>
</linearGradient>
<linearGradient id="paint26_linear_4_8" x1="439.575" y1="154.675" x2="439.575" y2="203.214" gradientUnits="userSpaceOnUse">
<stop stop-color="#FCF1DD"/>
<stop offset="0.9999" stop-color="#EDBA93"/>
<stop offset="1" stop-color="#EAD1A3"/>
</linearGradient>
<linearGradient id="paint27_linear_4_8" x1="437.982" y1="178.523" x2="437.982" y2="203.214" gradientUnits="userSpaceOnUse">
<stop stop-color="#FCF1DD"/>
<stop offset="0.9999" stop-color="#EDBA93"/>
<stop offset="1" stop-color="#EAD1A3"/>
</linearGradient>
<linearGradient id="paint28_linear_4_8" x1="432.957" y1="193.732" x2="432.957" y2="203.214" gradientUnits="userSpaceOnUse">
<stop stop-color="#FCF1DD"/>
<stop offset="0.9999" stop-color="#EDBA93"/>
<stop offset="1" stop-color="#EAD1A3"/>
</linearGradient>
<linearGradient id="paint29_linear_4_8" x1="430.461" y1="69.4023" x2="430.461" y2="175.635" gradientUnits="userSpaceOnUse">
<stop stop-color="#FCF1DD"/>
<stop offset="0.9999" stop-color="#EDBA93"/>
<stop offset="1" stop-color="#EAD1A3"/>
</linearGradient>
<linearGradient id="paint30_linear_4_8" x1="430.462" y1="77.2525" x2="430.462" y2="175.611" gradientUnits="userSpaceOnUse">
<stop stop-color="#FCF1DD"/>
<stop offset="0.9999" stop-color="#EDBA93"/>
<stop offset="1" stop-color="#EAD1A3"/>
</linearGradient>
<linearGradient id="paint31_linear_4_8" x1="430.46" y1="78.7971" x2="430.46" y2="175.635" gradientUnits="userSpaceOnUse">
<stop stop-color="#FCF1DD"/>
<stop offset="0.9999" stop-color="#EDBA93"/>
<stop offset="1" stop-color="#EAD1A3"/>
</linearGradient>
<linearGradient id="paint32_linear_4_8" x1="481.303" y1="118.204" x2="481.303" y2="193.109" gradientUnits="userSpaceOnUse">
<stop stop-color="#FFEFCC"/>
<stop offset="1" stop-color="#F09870"/>
</linearGradient>
<linearGradient id="paint33_linear_4_8" x1="504.621" y1="105.024" x2="504.621" y2="193.109" gradientUnits="userSpaceOnUse">
<stop stop-color="#FCF1DD"/>
<stop offset="1" stop-color="#DA7E4D"/>
</linearGradient>
<linearGradient id="paint34_linear_4_8" x1="492.447" y1="56.186" x2="492.447" y2="72.1789" gradientUnits="userSpaceOnUse">
<stop stop-color="#FCF1DD"/>
<stop offset="0.9999" stop-color="#EDBA93"/>
<stop offset="1" stop-color="#EAD1A3"/>
</linearGradient>
<linearGradient id="paint35_linear_4_8" x1="527.372" y1="158.16" x2="527.372" y2="215.966" gradientUnits="userSpaceOnUse">
<stop stop-color="#FCF1DD"/>
<stop offset="0.9999" stop-color="#EDBA93"/>
<stop offset="1" stop-color="#EAD1A3"/>
</linearGradient>
<linearGradient id="paint36_linear_4_8" x1="530.041" y1="174.808" x2="530.041" y2="215.973" gradientUnits="userSpaceOnUse">
<stop stop-color="#FCF1DD"/>
<stop offset="0.9999" stop-color="#EDBA93"/>
<stop offset="1" stop-color="#EAD1A3"/>
</linearGradient>
<linearGradient id="paint37_linear_4_8" x1="535.34" y1="186.476" x2="535.34" y2="215.927" gradientUnits="userSpaceOnUse">
<stop stop-color="#FCF1DD"/>
<stop offset="0.9999" stop-color="#EDBA93"/>
<stop offset="1" stop-color="#EAD1A3"/>
</linearGradient>
<linearGradient id="paint38_linear_4_8" x1="527.638" y1="174.452" x2="527.638" y2="215.966" gradientUnits="userSpaceOnUse">
<stop stop-color="#FCF1DD" stop-opacity="0"/>
<stop offset="0.9999" stop-color="#F5CFB3"/>
<stop offset="1" stop-color="#EAD1A3"/>
</linearGradient>
<linearGradient id="paint39_linear_4_8" x1="506.53" y1="103.63" x2="506.53" y2="160.028" gradientUnits="userSpaceOnUse">
<stop stop-color="#FCF1DD"/>
<stop offset="0.9999" stop-color="#EDBA93"/>
<stop offset="1" stop-color="#EAD1A3"/>
</linearGradient>
<linearGradient id="paint40_linear_4_8" x1="492.327" y1="9.55806" x2="492.327" y2="69.3432" gradientUnits="userSpaceOnUse">
<stop stop-color="#F8F7F4"/>
<stop offset="0.13" stop-color="#FCF1DD"/>
<stop offset="0.9999" stop-color="#EDBA93"/>
<stop offset="1" stop-color="#EAD1A3"/>
</linearGradient>
<linearGradient id="paint41_linear_4_8" x1="495.071" y1="45.0883" x2="495.071" y2="69.3432" gradientUnits="userSpaceOnUse">
<stop stop-color="#FCF1DD"/>
<stop offset="0.9999" stop-color="#EDBA93"/>
<stop offset="1" stop-color="#EAD1A3"/>
</linearGradient>
<linearGradient id="paint42_linear_4_8" x1="522.142" y1="14.1612" x2="522.142" y2="39.073" gradientUnits="userSpaceOnUse">
<stop stop-color="#FCF1DD"/>
<stop offset="0.9999" stop-color="#EDBA93"/>
<stop offset="1" stop-color="#EAD1A3"/>
</linearGradient>
<linearGradient id="paint43_linear_4_8" x1="529.748" y1="2.0303" x2="529.748" y2="37.9978" gradientUnits="userSpaceOnUse">
<stop stop-color="#FCF1DD"/>
<stop offset="0.9999" stop-color="#EDBA93"/>
<stop offset="1" stop-color="#EAD1A3"/>
</linearGradient>
<linearGradient id="paint44_linear_4_8" x1="525.652" y1="26.9022" x2="546.505" y2="29.3799" gradientUnits="userSpaceOnUse">
<stop stop-color="#FCF1DD"/>
<stop offset="0.9999" stop-color="#EDBA93"/>
<stop offset="1" stop-color="#EAD1A3"/>
</linearGradient>
<linearGradient id="paint45_linear_4_8" x1="526.015" y1="86.1003" x2="526.015" y2="174.064" gradientUnits="userSpaceOnUse">
<stop stop-color="#FCF1DD"/>
<stop offset="0.825" stop-color="#EEBE99"/>
<stop offset="0.9999" stop-color="#EDBA93"/>
<stop offset="1" stop-color="#EAD1A3"/>
</linearGradient>
<linearGradient id="paint46_linear_4_8" x1="526.432" y1="110.26" x2="526.432" y2="174.064" gradientUnits="userSpaceOnUse">
<stop stop-color="#FCF1DD"/>
<stop offset="0.9999" stop-color="#EDBA93"/>
<stop offset="1" stop-color="#EAD1A3"/>
</linearGradient>
<linearGradient id="paint47_linear_4_8" x1="526.164" y1="106.901" x2="526.164" y2="174.064" gradientUnits="userSpaceOnUse">
<stop stop-color="#FCF1DD"/>
<stop offset="0.9999" stop-color="#EDBA93"/>
<stop offset="1" stop-color="#EAD1A3"/>
</linearGradient>
<clipPath id="clip0_4_8">
<rect width="122" height="61" fill="white" transform="translate(514 259)"/>
</clipPath>
</defs>
</svg>
