<svg width="1080" height="1080" viewBox="0 0 1080 1080" fill="none" xmlns="http://www.w3.org/2000/svg">
<g clip-path="url(#clip0_7_9)">
<rect width="1080" height="1080" fill="url(#paint0_linear_7_9)"/>
<g style="mix-blend-mode:soft-light" opacity="0.8" filter="url(#filter0_d_7_9)">
<path d="M1182.52 1042.57C1188.04 1042.57 1192.63 1037.98 1190.8 1032.77C1184.25 1014.09 1159.09 996.573 1118.93 983.138C1071.81 967.374 1007.9 958.518 941.259 958.518C874.621 958.518 810.712 967.374 763.592 983.138C723.43 996.573 698.269 1014.09 691.713 1032.77C689.885 1037.98 694.477 1042.57 700 1042.57L941.259 1042.57H1182.52Z" fill="#FFF1F3"/>
<path d="M1039.83 1008.12C1039.83 997.078 1038.12 986.148 1034.79 975.95C1031.46 965.751 1026.59 956.485 1020.44 948.68C1014.29 940.874 1007 934.683 998.965 930.459C990.934 926.234 982.326 924.06 973.633 924.06C964.94 924.06 956.332 926.234 948.3 930.459C940.269 934.683 932.971 940.874 926.824 948.68C920.677 956.485 915.801 965.751 912.475 975.95C909.148 986.148 907.436 997.078 907.436 1008.12L973.633 1008.12H1039.83Z" fill="#FFF1F3"/>
<path d="M973.149 1042.57C973.149 1004.5 961.542 967.977 940.882 941.052C920.222 914.127 892.2 899 862.982 899C833.764 899 805.742 914.127 785.082 941.052C764.422 967.977 752.815 1004.5 752.815 1042.57L862.982 1042.57H973.149Z" fill="#FFF1F3"/>
<path d="M1182.52 1042.57C1188.04 1042.57 1192.57 1038.09 1192.02 1032.59C1189.61 1008.42 1178.49 985.683 1160.39 968.371C1139.82 948.691 1111.92 937.635 1082.83 937.635C1053.74 937.635 1025.84 948.691 1005.27 968.371C987.18 985.683 976.06 1008.42 973.646 1032.59C973.098 1038.09 977.626 1042.57 983.149 1042.57L1082.83 1042.57H1182.52Z" fill="#FFF1F3"/>
<ellipse cx="728.655" cy="965.827" rx="13.5293" ry="14.6185" fill="#FFF1F3"/>
<path d="M941.124 961.9C936.257 951.701 945.289 943.482 951.293 953.056C960.626 967.939 966.859 985.763 970.072 1008.48C970.793 1013.58 966.748 1018.04 961.595 1018.04V1018.04C956.267 1018.04 952.222 1013.29 952.332 1007.96C952.653 992.47 948.441 977.232 941.124 961.9Z" fill="#FFF1F3"/>
<path d="M1009 951.799C1005.18 944.258 1008.3 937.474 1013.32 944.175C1015.08 946.522 1016.77 949.123 1018.39 952.008C1019.58 954.119 1018.62 956.877 1016.41 957.924V957.924C1014.1 959.025 1011.48 957.735 1010.56 955.334C1010.1 954.118 1009.57 952.941 1009 951.799Z" fill="#FFF1F3"/>
<rect x="1073.65" y="902.132" width="42.5207" height="18.7952" rx="9.3976" fill="#FFF1F3"/>
<ellipse cx="1053.84" cy="913.096" rx="7.24784" ry="7.83134" fill="#FFF1F3"/>
</g>
<path d="M1479 1087.15C1372.37 1046.78 1289.72 960.32 1254.2 851.974L1189 653.152V653.152C1137.38 433.938 884.017 332.21 695.135 454.86L494.715 585.003C476.435 596.873 455.903 604.845 434.402 608.418L161.254 653.82C92.2175 665.295 79.0724 758.868 142.275 788.921L166.311 800.349C212.949 822.525 211.283 889.462 163.599 909.29V909.29C148.807 915.441 132.163 915.383 117.415 909.13L-30.4839 846.421C-51.4461 837.533 -75.1546 837.732 -95.9646 846.971V846.971C-159.957 875.38 -161.453 965.658 -98.437 996.172L-40.6694 1024.14C-25.4487 1031.51 -8.75685 1035.34 8.15443 1035.34H127.508C240.368 1035.34 343.956 972.871 396.614 873.049V873.049C431.142 807.595 488.342 756.97 557.505 730.649L624.784 705.046C673.437 686.531 727.11 686.044 776.091 703.675L826.571 721.845C882.748 742.065 920.203 795.354 920.203 855.06V855.06C920.203 915.949 959.134 970.02 1016.88 989.332L1197.86 1049.86C1227.19 1059.67 1257.55 1066.1 1288.34 1069.03L1479 1087.15V1087.15Z" fill="url(#paint1_linear_7_9)" fill-opacity="0.49"/>
<path d="M-224 1133C-172.823 1090.14 -137.42 1031.41 -123.406 966.147L-66.061 699.075V699.075C-41.6929 509.094 186.18 424.86 328.257 553.315L371.403 592.323C377.783 598.092 384.753 603.173 392.196 607.483L470.498 652.824C528.686 686.517 521.6 772.678 458.69 796.412V796.412C391.056 821.929 389.567 917.062 456.369 944.683L461.06 946.622C488.214 957.85 519.305 953.637 542.493 935.588L572.376 912.327C597.896 892.462 633.757 892.863 658.826 913.295V913.295C691.954 940.295 693.03 990.537 661.09 1018.93L623.066 1052.73C602.438 1071.07 575.796 1081.2 548.194 1081.2H522.011C454.452 1081.2 392.48 1043.69 361.154 983.832L328.018 920.519C319.315 903.889 319.53 884.004 328.589 867.566V867.566C345.429 837.011 330.504 798.663 297.439 787.531L252.26 772.319C211.36 758.549 166.302 773.832 142.22 809.644L96 878.38L70.6863 914.208C56.6595 934.061 53.1892 959.504 61.387 982.389V982.389C75.8596 1022.79 53.3324 1067.04 12.1493 1079.1L-94.9278 1110.47L-224 1133V1133Z" fill="url(#paint2_linear_7_9)" fill-opacity="0.49"/>
<g style="mix-blend-mode:soft-light" opacity="0.8" filter="url(#filter1_d_7_9)">
<path d="M1500.52 810.074C1506.04 810.074 1510.63 805.484 1508.8 800.273C1502.25 781.589 1477.09 764.073 1436.93 750.638C1389.81 734.874 1325.9 726.018 1259.26 726.018C1192.62 726.018 1128.71 734.874 1081.59 750.638C1041.43 764.073 1016.27 781.589 1009.71 800.273C1007.88 805.484 1012.48 810.074 1018 810.074L1259.26 810.074H1500.52Z" fill="white"/>
<path d="M1291.15 810.075C1291.15 771.996 1279.54 735.477 1258.88 708.552C1238.22 681.627 1210.2 666.5 1180.98 666.5C1151.76 666.5 1123.74 681.627 1103.08 708.552C1082.42 735.477 1070.81 771.996 1070.81 810.074L1180.98 810.075H1291.15Z" fill="white"/>
<ellipse cx="1046.66" cy="733.327" rx="13.5293" ry="14.6185" fill="white"/>
</g>
<path d="M799.122 42.8736C801.324 38.4203 807.676 38.4203 809.878 42.8736L814.356 51.9263C814.939 53.1059 815.894 54.061 817.074 54.6444L826.126 59.1219C830.58 61.3245 830.58 67.6755 826.126 69.8781L817.074 74.3556C815.894 74.939 814.939 75.8941 814.356 77.0737L809.878 86.1264C807.676 90.5797 801.324 90.5797 799.122 86.1264L794.644 77.0737C794.061 75.8941 793.106 74.939 791.926 74.3556L782.874 69.8781C778.42 67.6755 778.42 61.3245 782.874 59.1219L791.926 54.6444C793.106 54.061 794.061 53.1059 794.644 51.9263L799.122 42.8736Z" fill="#FDF1B4" fill-opacity="0.84"/>
<path d="M918.122 366.874C920.324 362.42 926.676 362.42 928.878 366.874L930.377 369.905C930.961 371.084 931.916 372.039 933.095 372.623L936.126 374.122C940.58 376.324 940.58 382.676 936.126 384.878L933.095 386.377C931.916 386.961 930.961 387.916 930.377 389.095L928.878 392.126C926.676 396.58 920.324 396.58 918.122 392.126L916.623 389.095C916.039 387.916 915.084 386.961 913.905 386.377L910.874 384.878C906.42 382.676 906.42 376.324 910.874 374.122L913.905 372.623C915.084 372.039 916.039 371.084 916.623 369.905L918.122 366.874Z" fill="#FDF1B4"/>
<path d="M114.415 274.219C116.409 269.143 123.591 269.143 125.585 274.219L128.209 280.899C128.68 282.1 129.526 283.117 130.621 283.799L138.823 288.907C142.594 291.256 142.594 296.744 138.823 299.093L130.621 304.201C129.526 304.883 128.68 305.9 128.209 307.101L125.585 313.781C123.591 318.857 116.409 318.857 114.415 313.781L111.791 307.101C111.32 305.9 110.474 304.883 109.379 304.201L101.177 299.093C97.4065 296.744 97.4065 291.256 101.177 288.907L109.379 283.799C110.474 283.117 111.32 282.1 111.791 280.899L114.415 274.219Z" fill="#FDF1B4"/>
<path d="M49.1219 123.874C51.3245 119.42 57.6755 119.42 59.8781 123.874L64.3556 132.926C64.939 134.106 65.8941 135.061 67.0737 135.644L76.1264 140.122C80.5797 142.324 80.5797 148.676 76.1264 150.878L67.0737 155.356C65.8941 155.939 64.939 156.894 64.3556 158.074L59.8781 167.126C57.6755 171.58 51.3245 171.58 49.1219 167.126L44.6444 158.074C44.061 156.894 43.1059 155.939 41.9263 155.356L32.8736 150.878C28.4203 148.676 28.4203 142.324 32.8736 140.122L41.9263 135.644C43.1059 135.061 44.061 134.106 44.6444 132.926L49.1219 123.874Z" fill="#FDF1B4"/>
<path d="M1037.12 222.874C1039.32 218.42 1045.68 218.42 1047.88 222.874L1052.36 231.926C1052.94 233.106 1053.89 234.061 1055.07 234.644L1064.13 239.122C1068.58 241.324 1068.58 247.676 1064.13 249.878L1055.07 254.356C1053.89 254.939 1052.94 255.894 1052.36 257.074L1047.88 266.126C1045.68 270.58 1039.32 270.58 1037.12 266.126L1032.64 257.074C1032.06 255.894 1031.11 254.939 1029.93 254.356L1020.87 249.878C1016.42 247.676 1016.42 241.324 1020.87 239.122L1029.93 234.644C1031.11 234.061 1032.06 233.106 1032.64 231.926L1037.12 222.874Z" fill="#FDF1B4"/>
<circle cx="329.5" cy="437.5" r="7.5" fill="#FDF1B4"/>
<circle cx="765.5" cy="384.5" r="7.5" fill="#FDF1B4"/>
<circle cx="101.5" cy="180.5" r="2.5" fill="#FDF1B4"/>
<circle cx="74.5" cy="182.5" r="2.5" fill="#FDF1B4"/>
<circle cx="257.5" cy="296.5" r="2.5" fill="#FDF1B4"/>
<circle cx="683.5" cy="70.5" r="2.5" fill="#FDF1B4"/>
<circle cx="288.5" cy="301.5" r="2.5" fill="#FDF1B4"/>
<circle cx="140.5" cy="340.5" r="2.5" fill="#FDF1B4"/>
<circle cx="37.5" cy="285.5" r="2.5" fill="#FDF1B4"/>
<circle cx="6.5" cy="227.5" r="2.5" fill="#FDF1B4"/>
<circle cx="946.5" cy="367.5" r="2.5" fill="#FDF1B4"/>
<circle cx="928.5" cy="325.5" r="2.5" fill="#FDF1B4"/>
<circle cx="790.5" cy="432.5" r="2.5" fill="#FDF1B4"/>
<circle cx="629.5" cy="432.5" r="2.5" fill="#FDF1B4"/>
<circle cx="855.5" cy="48.5" r="2.5" fill="#FDF1B4"/>
<circle cx="974" cy="250" r="6" fill="#FDF1B4"/>
<circle cx="742" cy="35" r="6" fill="#FDF1B4"/>
<circle cx="105" cy="364" r="6" fill="#FDF1B4"/>
<circle cx="22" cy="102" r="6" fill="#FDF1B4"/>
<circle cx="87" cy="209" r="6" fill="#FDF1B4"/>
<circle cx="742" cy="310" r="6" fill="#FDF1B4"/>
<circle cx="283.5" cy="365.5" r="2.5" fill="#FDF1B4"/>
<g style="mix-blend-mode:soft-light" opacity="0.8" filter="url(#filter2_d_7_9)">
<path d="M259.517 1086.57C265.04 1086.57 269.633 1081.98 267.804 1076.77C261.248 1058.09 236.087 1040.57 195.925 1027.14C148.805 1011.37 84.8965 1002.52 18.2586 1002.52C-48.3793 1002.52 -112.288 1011.37 -159.408 1027.14C-199.57 1040.57 -224.731 1058.09 -231.287 1076.77C-233.115 1081.98 -228.523 1086.57 -223 1086.57L18.2586 1086.57H259.517Z" fill="white"/>
<path d="M116.83 1052.12C116.83 1041.08 115.118 1030.15 111.791 1019.95C108.464 1009.75 103.588 1000.49 97.4411 992.68C91.2941 984.874 83.9966 978.683 75.9653 974.459C67.9339 970.234 59.3259 968.06 50.6328 968.06C41.9397 968.06 33.3317 970.234 25.3003 974.459C17.2689 978.683 9.97139 984.874 3.82443 992.68C-2.32252 1000.49 -7.19856 1009.75 -10.5253 1019.95C-13.852 1030.15 -15.5642 1041.08 -15.5642 1052.12L50.6328 1052.12H116.83Z" fill="white"/>
<path d="M50.1492 1086.57C50.1492 1048.5 38.5423 1011.98 17.8819 985.052C-2.77844 958.127 -30.7999 943 -60.0181 943C-89.2362 943 -117.258 958.127 -137.918 985.052C-158.578 1011.98 -170.185 1048.5 -170.185 1086.57L-60.0181 1086.57H50.1492Z" fill="white"/>
<path d="M259.517 1086.57C265.04 1086.57 269.569 1082.09 269.02 1076.59C266.607 1052.42 255.487 1029.68 237.392 1012.37C216.822 992.691 188.923 981.635 159.833 981.635C130.743 981.635 102.845 992.691 82.2749 1012.37C64.1795 1029.68 53.0598 1052.42 50.6464 1076.59C50.0976 1082.09 54.6263 1086.57 60.1492 1086.57L159.833 1086.57H259.517Z" fill="white"/>
<path d="M18.1241 1005.9C13.2569 995.701 22.2895 987.482 28.2929 997.056C37.6257 1011.94 43.8592 1029.76 47.0719 1052.48C47.7935 1057.58 43.7478 1062.04 38.5953 1062.04V1062.04C33.2673 1062.04 29.2217 1057.29 29.332 1051.96C29.653 1036.47 25.4411 1021.23 18.1241 1005.9Z" fill="#EBCEE2"/>
<path d="M248.457 1048.5C244.557 1037.89 253.541 1029.95 258.639 1040.03C263.844 1050.33 267.385 1062.29 269.187 1076.8C269.763 1081.44 266.478 1085.61 261.869 1086.4L261.592 1086.44C261.079 1086.53 260.557 1086.56 260.037 1086.52V1086.52C256.148 1086.27 253.336 1082.74 253.514 1078.85C253.985 1068.49 252.127 1058.48 248.457 1048.5Z" fill="#EBCEE2"/>
<path d="M85.9954 995.799C82.1775 988.258 85.302 981.474 90.3237 988.175C92.0822 990.522 93.7684 993.123 95.3926 996.008C96.5813 998.119 95.618 1000.88 93.4135 1001.92V1001.92C91.0956 1003.02 88.4757 1001.73 87.5598 999.334C87.096 998.118 86.5737 996.941 85.9954 995.799Z" fill="#EBCEE2"/>
<rect x="150.653" y="946.132" width="42.5207" height="18.7952" rx="9.3976" fill="white"/>
<ellipse cx="130.842" cy="957.096" rx="7.24784" ry="7.83134" fill="white"/>
</g>
<g style="mix-blend-mode:soft-light" opacity="0.8" filter="url(#filter3_d_7_9)">
<path d="M1192.63 167.574C1198.15 167.574 1202.73 162.926 1200.48 157.883C1194.35 144.145 1175.29 131.327 1145.71 121.385C1109.27 109.135 1059.85 102.253 1008.31 102.253C956.778 102.253 907.354 109.135 870.913 121.385C841.338 131.327 822.281 144.145 816.15 157.883C813.899 162.926 818.477 167.574 824 167.574L1008.31 167.574H1192.63Z" fill="white"/>
<path d="M1084.54 140.797C1084.54 132.218 1083.22 123.724 1080.65 115.799C1078.07 107.874 1074.3 100.673 1069.55 94.6071C1064.8 88.5414 1059.15 83.7298 1052.94 80.4471C1046.73 77.1644 1040.07 75.4748 1033.35 75.4748C1026.63 75.4748 1019.97 77.1644 1013.76 80.4471C1007.55 83.7298 1001.9 88.5414 997.15 94.6071C992.397 100.673 988.626 107.874 986.053 115.799C983.48 123.724 982.156 132.218 982.156 140.797L1033.35 140.797H1084.54Z" fill="white"/>
<path d="M1032.98 167.575C1032.98 137.983 1024 109.604 1008.02 88.6794C992.044 67.7551 970.373 56 947.777 56C925.181 56 903.51 67.7551 887.533 88.6794C871.555 109.604 862.578 137.983 862.578 167.574L947.777 167.575H1032.98Z" fill="white"/>
<path d="M1192.63 167.574C1198.15 167.574 1202.69 163.079 1201.99 157.601C1199.69 139.649 1191.22 122.833 1177.78 109.909C1161.87 94.6156 1140.3 86.0237 1117.8 86.0237C1095.3 86.0237 1073.73 94.6156 1057.82 109.909C1044.38 122.833 1035.91 139.649 1033.61 157.601C1032.91 163.079 1037.45 167.574 1042.98 167.574L1117.8 167.574H1192.63Z" fill="white"/>
<ellipse cx="843.894" cy="107.933" rx="10.463" ry="11.3603" fill="white"/>
<path d="M1013.22 117.363C1009.74 106.61 1017.85 99.5876 1022.31 109.968C1026.16 118.917 1028.92 129.141 1030.6 141.113C1031.16 145.06 1028.03 148.505 1024.04 148.505V148.505C1019.92 148.505 1016.79 144.832 1016.88 140.712C1017.04 132.871 1015.72 125.113 1013.22 117.363Z" fill="#EBCEE2"/>
<path d="M1060.7 97.0355C1057.75 91.1764 1060.18 85.9169 1064.06 91.1258C1065.42 92.947 1066.72 94.9652 1067.97 97.2029C1068.89 98.839 1068.14 100.977 1066.43 101.791V101.791C1064.64 102.647 1062.62 101.65 1061.91 99.7902C1061.55 98.8429 1061.15 97.9255 1060.7 97.0355Z" fill="#EBCEE2"/>
<g style="mix-blend-mode:soft-light" opacity="0.8" filter="url(#filter4_d_7_9)">
<path d="M47.3186 54C41.7958 54 37.4031 49.2145 40.6636 44.7567C47.1162 35.9346 62.7222 27.7575 85.8922 21.2957C116.993 12.6219 159.176 7.74909 203.159 7.74908C247.143 7.74908 289.325 12.6219 320.426 21.2957C343.596 27.7575 359.202 35.9345 365.655 44.7567C368.915 49.2145 364.523 54 359 54L203.159 54H47.3186Z" fill="white"/>
<path d="M138.099 35.04C138.099 28.9662 139.229 22.9519 141.425 17.3405C143.62 11.7291 146.839 6.63043 150.896 2.33564C154.953 -1.95916 159.77 -5.36597 165.071 -7.6903C170.372 -10.0146 176.053 -11.2109 181.791 -11.2109C187.529 -11.2109 193.211 -10.0146 198.512 -7.6903C203.813 -5.36597 208.629 -1.95915 212.687 2.33564C216.744 6.63043 219.962 11.7291 222.158 17.3405C224.354 22.9519 225.484 28.9662 225.484 35.04L181.791 35.04H138.099Z" fill="white"/>
<path d="M182.11 54C182.11 33.0479 189.771 12.9539 203.408 -1.86143C217.045 -16.6768 235.54 -25 254.825 -25C274.11 -25 292.605 -16.6768 306.242 -1.86144C319.879 12.9539 327.54 33.0479 327.54 54L254.825 54H182.11Z" fill="white"/>
<path d="M47.3187 54C41.7958 54 37.2153 49.4725 38.3953 44.0772C40.9391 32.447 47.915 21.6311 58.5229 13.1704C72.0998 2.34168 90.5139 -3.74182 109.715 -3.74182C128.915 -3.74182 147.329 2.34167 160.906 13.1704C171.514 21.631 178.49 32.447 181.034 44.0772C182.214 49.4725 177.633 54 172.11 54L109.715 54H47.3187Z" fill="white"/>
<ellipse cx="8.92988" cy="8.04364" rx="8.92988" ry="8.04364" transform="matrix(-1 0 0 1 352.416 3.7272)" fill="white"/>
<path d="M196.102 29.6161C197.317 19.3184 190.677 12.5192 187.343 22.338C186.094 26.0174 185.086 29.9707 184.316 34.2422C183.72 37.5505 186.343 40.4982 189.704 40.4982V40.4982C193.201 40.4982 195.819 37.316 195.84 33.8192C195.848 32.415 195.937 31.0142 196.102 29.6161Z" fill="#EBCEE2"/>
<path d="M47.9689 45.0594C48.7635 36.3765 42.6222 30.1695 39.9 38.4529C38.9663 41.2939 38.2291 44.3405 37.6919 47.6275C37.1905 50.6956 39.4146 53.4816 42.4924 53.9193L42.6412 53.9405C42.9194 53.9801 43.2008 53.9923 43.4814 53.977V53.977C46.0652 53.8366 47.916 51.4583 47.8457 48.8716C47.811 47.5923 47.8533 46.3222 47.9689 45.0594Z" fill="#EBCEE2"/>
<path d="M158.517 3.94249C161.087 -0.227345 159.474 -4.29469 156.077 -0.669706C154.807 0.68535 153.594 2.20161 152.43 3.89932C151.542 5.19359 152.097 6.84542 153.54 7.41678V7.41678C155.067 8.02117 156.863 7.1379 157.576 5.65968C157.86 5.07129 158.174 4.49935 158.517 3.94249Z" fill="#EBCEE2"/>
</g>
<circle cx="1049.5" cy="209.5" r="2.5" fill="#FDF1B4"/>
</g>
<g style="mix-blend-mode:soft-light" opacity="0.8" filter="url(#filter5_d_7_9)">
<path d="M298.517 453.574C304.04 453.574 308.633 448.984 306.804 443.773C300.248 425.089 275.087 407.573 234.925 394.138C187.805 378.374 123.897 369.518 57.2586 369.518C-9.3793 369.518 -73.2879 378.374 -120.408 394.138C-160.57 407.573 -185.731 425.089 -192.287 443.773C-194.115 448.984 -189.523 453.574 -184 453.574L57.2586 453.574H298.517Z" fill="#FFF1F3"/>
<path d="M155.83 419.117C155.83 408.078 154.118 397.148 150.791 386.95C147.464 376.751 142.588 367.485 136.441 359.68C130.294 351.874 122.997 345.683 114.965 341.459C106.934 337.234 98.3259 335.06 89.6328 335.06C80.9397 335.06 72.3317 337.234 64.3003 341.459C56.2689 345.683 48.9714 351.874 42.8244 359.68C36.6775 367.485 31.8014 376.751 28.4747 386.95C25.148 397.148 23.4358 408.078 23.4358 419.117L89.6328 419.117H155.83Z" fill="#FFF1F3"/>
<path d="M89.1492 453.575C89.1492 415.496 77.5423 378.977 56.8819 352.052C36.2216 325.127 8.2001 310 -21.0181 310C-50.2362 310 -78.2577 325.127 -98.9181 352.052C-119.578 378.977 -131.185 415.496 -131.185 453.574L-21.0181 453.575H89.1492Z" fill="#FFF1F3"/>
<path d="M298.517 453.574C304.04 453.574 308.569 449.086 308.02 443.59C305.607 419.423 294.487 396.683 276.392 379.371C255.822 359.691 227.923 348.635 198.833 348.635C169.743 348.635 141.845 359.691 121.275 379.371C103.18 396.683 92.0598 419.423 89.6464 443.59C89.0976 449.086 93.6263 453.574 99.1492 453.574L198.833 453.574H298.517Z" fill="#FFF1F3"/>
<path d="M57.1241 372.9C52.2569 362.701 61.2895 354.482 67.2929 364.056C76.6257 378.939 82.8592 396.763 86.0719 419.48C86.7935 424.582 82.7478 429.036 77.5953 429.036V429.036C72.2673 429.036 68.2217 424.285 68.332 418.958C68.653 403.47 64.4411 388.232 57.1241 372.9Z" fill="#FFF1F3"/>
<path d="M287.457 415.5C283.557 404.895 292.541 396.946 297.639 407.03C302.844 417.327 306.385 429.295 308.187 443.8C308.763 448.44 305.478 452.609 300.869 453.395L300.592 453.443C300.079 453.53 299.557 453.557 299.037 453.524V453.524C295.148 453.27 292.336 449.74 292.514 445.846C292.985 435.487 291.127 425.477 287.457 415.5Z" fill="#FFF1F3"/>
<path d="M124.995 362.799C121.177 355.258 124.302 348.474 129.324 355.175C131.082 357.522 132.768 360.123 134.393 363.008C135.581 365.119 134.618 367.877 132.414 368.924V368.924C130.096 370.025 127.476 368.735 126.56 366.334C126.096 365.118 125.574 363.941 124.995 362.799Z" fill="#FFF1F3"/>
<rect x="220" y="317" width="42.5207" height="18.7952" rx="9.3976" fill="#FFF1F3"/>
<ellipse cx="169.842" cy="324.096" rx="7.24784" ry="7.83134" fill="#FFF1F3"/>
</g>
</g>
<defs>
<filter id="filter0_d_7_9" x="687.305" y="899" width="508.947" height="151.575" filterUnits="userSpaceOnUse" color-interpolation-filters="sRGB">
<feFlood flood-opacity="0" result="BackgroundImageFix"/>
<feColorMatrix in="SourceAlpha" type="matrix" values="0 0 0 0 0 0 0 0 0 0 0 0 0 0 0 0 0 0 127 0" result="hardAlpha"/>
<feOffset dy="4"/>
<feGaussianBlur stdDeviation="2"/>
<feColorMatrix type="matrix" values="0 0 0 0 0 0 0 0 0 0 0 0 0 0 0 0 0 0 0.25 0"/>
<feBlend mode="normal" in2="BackgroundImageFix" result="effect1_dropShadow_7_9"/>
<feBlend mode="normal" in="SourceGraphic" in2="effect1_dropShadow_7_9" result="shape"/>
</filter>
<filter id="filter1_d_7_9" x="1005.31" y="666.5" width="508.947" height="151.575" filterUnits="userSpaceOnUse" color-interpolation-filters="sRGB">
<feFlood flood-opacity="0" result="BackgroundImageFix"/>
<feColorMatrix in="SourceAlpha" type="matrix" values="0 0 0 0 0 0 0 0 0 0 0 0 0 0 0 0 0 0 127 0" result="hardAlpha"/>
<feOffset dy="4"/>
<feGaussianBlur stdDeviation="2"/>
<feColorMatrix type="matrix" values="0 0 0 0 0 0 0 0 0 0 0 0 0 0 0 0 0 0 0.25 0"/>
<feBlend mode="normal" in2="BackgroundImageFix" result="effect1_dropShadow_7_9"/>
<feBlend mode="normal" in="SourceGraphic" in2="effect1_dropShadow_7_9" result="shape"/>
</filter>
<filter id="filter2_d_7_9" x="-235.695" y="943" width="508.947" height="151.575" filterUnits="userSpaceOnUse" color-interpolation-filters="sRGB">
<feFlood flood-opacity="0" result="BackgroundImageFix"/>
<feColorMatrix in="SourceAlpha" type="matrix" values="0 0 0 0 0 0 0 0 0 0 0 0 0 0 0 0 0 0 127 0" result="hardAlpha"/>
<feOffset dy="4"/>
<feGaussianBlur stdDeviation="2"/>
<feColorMatrix type="matrix" values="0 0 0 0 0 0 0 0 0 0 0 0 0 0 0 0 0 0 0.25 0"/>
<feBlend mode="normal" in2="BackgroundImageFix" result="effect1_dropShadow_7_9"/>
<feBlend mode="normal" in="SourceGraphic" in2="effect1_dropShadow_7_9" result="shape"/>
</filter>
<filter id="filter3_d_7_9" x="33.6213" y="-25" width="1172.8" height="245" filterUnits="userSpaceOnUse" color-interpolation-filters="sRGB">
<feFlood flood-opacity="0" result="BackgroundImageFix"/>
<feColorMatrix in="SourceAlpha" type="matrix" values="0 0 0 0 0 0 0 0 0 0 0 0 0 0 0 0 0 0 127 0" result="hardAlpha"/>
<feOffset dy="4"/>
<feGaussianBlur stdDeviation="2"/>
<feColorMatrix type="matrix" values="0 0 0 0 0 0 0 0 0 0 0 0 0 0 0 0 0 0 0.25 0"/>
<feBlend mode="normal" in2="BackgroundImageFix" result="effect1_dropShadow_7_9"/>
<feBlend mode="normal" in="SourceGraphic" in2="effect1_dropShadow_7_9" result="shape"/>
</filter>
<filter id="filter4_d_7_9" x="33.6213" y="-25" width="337.149" height="87" filterUnits="userSpaceOnUse" color-interpolation-filters="sRGB">
<feFlood flood-opacity="0" result="BackgroundImageFix"/>
<feColorMatrix in="SourceAlpha" type="matrix" values="0 0 0 0 0 0 0 0 0 0 0 0 0 0 0 0 0 0 127 0" result="hardAlpha"/>
<feOffset dy="4"/>
<feGaussianBlur stdDeviation="2"/>
<feColorMatrix type="matrix" values="0 0 0 0 0 0 0 0 0 0 0 0 0 0 0 0 0 0 0.25 0"/>
<feBlend mode="normal" in2="BackgroundImageFix" result="effect1_dropShadow_7_9"/>
<feBlend mode="normal" in="SourceGraphic" in2="effect1_dropShadow_7_9" result="shape"/>
</filter>
<filter id="filter5_d_7_9" x="-196.695" y="310" width="508.947" height="151.575" filterUnits="userSpaceOnUse" color-interpolation-filters="sRGB">
<feFlood flood-opacity="0" result="BackgroundImageFix"/>
<feColorMatrix in="SourceAlpha" type="matrix" values="0 0 0 0 0 0 0 0 0 0 0 0 0 0 0 0 0 0 127 0" result="hardAlpha"/>
<feOffset dy="4"/>
<feGaussianBlur stdDeviation="2"/>
<feColorMatrix type="matrix" values="0 0 0 0 0 0 0 0 0 0 0 0 0 0 0 0 0 0 0.25 0"/>
<feBlend mode="normal" in2="BackgroundImageFix" result="effect1_dropShadow_7_9"/>
<feBlend mode="normal" in="SourceGraphic" in2="effect1_dropShadow_7_9" result="shape"/>
</filter>
<linearGradient id="paint0_linear_7_9" x1="540" y1="0" x2="540" y2="1080" gradientUnits="userSpaceOnUse">
<stop stop-color="#877FA8"/>
<stop offset="0.265" stop-color="#BD86A6"/>
<stop offset="0.49" stop-color="#F59193"/>
<stop offset="0.73" stop-color="#F9AE91"/>
<stop offset="0.94" stop-color="#FBF7BF"/>
<stop offset="1" stop-color="white"/>
</linearGradient>
<linearGradient id="paint1_linear_7_9" x1="565" y1="375" x2="580.929" y2="1176.68" gradientUnits="userSpaceOnUse">
<stop stop-color="#FFDEDE" stop-opacity="0"/>
<stop offset="0.279302" stop-color="#FFDEDE" stop-opacity="0.822917"/>
<stop offset="0.921875" stop-color="white" stop-opacity="0"/>
</linearGradient>
<linearGradient id="paint2_linear_7_9" x1="272.975" y1="616.216" x2="276.274" y2="1223.81" gradientUnits="userSpaceOnUse">
<stop offset="0.42" stop-color="#FFDEDE" stop-opacity="0.822917"/>
<stop offset="0.921875" stop-color="white" stop-opacity="0"/>
</linearGradient>
<clipPath id="clip0_7_9">
<rect width="1080" height="1080" fill="white"/>
</clipPath>
</defs>
</svg>
